<svg viewBox="0 0 800 800" xmlns="http://www.w3.org/2000/svg"><path d="M730.6970560987672,234.32024276513948 L730.7626914334708,164.24150787829007 M730.6970560987672,234.32024276513948 L52.344470785692295,625.9455335405232 M730.7626914334708,164.24150787829007 L52.27516215945758,555.7888581118918 M52.344470785692295,625.9455335405232 L52.27516215945758,555.7888581118918 M686.6606267897196,224.72127168327833 L686.5843774925745,224.03359904944887 M686.5843774925745,224.03359904944887 L686.358829210119,223.47462195290058 M686.358829210119,223.47462195290058 L685.9970890223599,223.0768259980963 M685.9970890223599,223.0768259980963 L685.52021079014,222.8633103058654 M685.52021079014,222.8633103058654 L684.9558733753154,222.84650920791847 M684.9558733753154,222.84650920791847 L684.3368969972134,223.02738507898732 M684.3368969972134,223.02738507898732 L683.6992746828282,223.39541647502094 M683.6992746828282,223.39541647502094 L683.080009353497,223.92924663876056 M683.080009353497,223.92924663876056 L682.5151117031064,224.59783879966827 M682.5151117031064,224.59783879966827 L682.0374360530511,225.3623246695917 M682.0374360530511,225.3623246695917 L681.6747417672098,226.1782711367291 M681.6747417672098,226.1782711367291 L681.4480772093009,226.99827650376346 M681.4480772093009,226.99827650376346 L681.3706155784096,227.7746839245245 M681.3706155784096,227.7746839245245 L681.4469104440741,228.46233954160755 M681.4469104440741,228.46233954160755 L681.6724742249592,229.0213087761157 M681.6724742249592,229.0213087761157 L682.0341962905886,229.41910782470217 M682.0341962905886,229.41910782470217 L682.5110841122255,229.63260152037967 M682.5110841122255,229.63260152037967 L683.0754243401841,229.64938333963036 M683.0754243401841,229.64938333963036 L683.6943961124282,229.46849299094097 M683.6943961124282,229.46849299094097 L684.3320074577266,229.10045523509453 M684.3320074577266,229.10045523509453 L684.9512579667505,228.5666282857974 M684.9512579667505,228.5666282857974 L685.5161403408733,227.89804817753338 M685.5161403408733,227.89804817753338 L685.9938037571953,227.13358277100423 M685.9938037571953,227.13358277100423 L686.3565239448565,226.31763772070374 M686.3565239448565,226.31763772070374 L686.5831894258752,225.497649736823 M686.5831894258752,225.497649736823 L686.6606267897196,224.72127168327833 M515.9334644689752,323.26556327737484 L515.8567668138242,322.5777398304235 M515.8567668138242,322.5777398304235 L515.6306316707876,322.01871566585714 M515.6306316707876,322.01871566585714 L515.2682002240074,321.6209791243809 M515.2682002240074,321.6209791243809 L514.7905508487722,321.4076349117758 M514.7905508487722,321.4076349117758 L514.2254233469589,321.3910980907724 M514.2254233469589,321.3910980907724 L513.6056762688411,321.5723200563206 M513.6056762688411,321.5723200563206 L512.9673156012379,321.94077762496363 M512.9673156012379,321.94077762496363 L512.3474422753947,322.47505746999474 M512.3474422753947,322.47505746999474 L511.7820942632912,323.14410133725954 M511.7820942632912,323.14410133725954 L511.30411262271275,323.909037450874 M511.30411262271275,323.909037450874 L510.9412901897657,324.7253974736552 M510.9412901897657,324.7253974736552 L510.7147060466454,325.5457422415782 M510.7147060466454,325.5457422415782 L510.637528718804,326.3223951823531 M510.637528718804,326.3223951823531 L510.71424776246863,327.0102155797571 M510.71424776246863,327.0102155797571 L510.94039843053207,327.5692318681631 M510.94039843053207,327.5692318681631 L511.3028359822126,327.96695751121115 M511.3028359822126,327.96695751121115 L511.78050303596837,328.18027504100894 M511.78050303596837,328.18027504100894 L512.3456252661279,328.1967972303282 M512.3456252661279,328.1967972303282 L512.9653758034153,328.01555611289666 M512.9653758034153,328.01555611289666 L513.6037254769226,327.64709218418005 M513.6037254769226,327.64709218418005 L514.2235758740355,327.1128202279101 M514.2235758740355,327.1128202279101 L514.7889166670955,326.4437837664732 M514.7889166670955,326.4437837664732 L515.2668779787937,325.67887280243536 M515.2668779787937,325.67887280243536 L515.6297021039065,324.86252818867763 M515.6297021039065,324.86252818867763 L515.8562871803863,324.0422008180754 M515.8562871803863,324.0422008180754 L515.9334644689752,323.26556327737484 M387.76259908825347,397.2462173236046 L387.6855642839719,396.5582809740281 M387.6855642839719,396.5582809740281 L387.45898847815215,395.999221523473 M387.45898847815215,395.999221523473 L387.09603771957455,395.601529793119 M387.09603771957455,395.601529793119 L386.6178045001341,395.3883171561431 M386.6178045001341,395.3883171561431 L386.05208148166594,395.3719801054274 M386.05208148166594,395.3719801054274 L385.4317458957923,395.5534676198154 M385.4317458957923,395.5534676198154 L384.7928493431098,395.92223449779317 M384.7928493431098,395.92223449779317 L384.172523424735,396.45684971111837 M384.172523424735,396.45684971111837 L383.6068210359208,397.12624208367106 M383.6068210359208,397.12624208367106 L383.12861975901365,397.8915103920278 M383.12861975901365,397.8915103920278 L382.765711286499,398.70817501833193 M382.765711286499,398.70817501833193 L382.5391876660262,399.5287744983886 M382.5391876660262,399.5287744983886 L382.46221390554064,400.3056174559924 M382.46221390554064,400.3056174559924 L382.53926178485955,400.9935555623875 M382.53926178485955,400.9935555623875 L382.7658533883952,401.5526069802872 M382.7658533883952,401.5526069802872 L383.12881834798077,401.9502831329337 M383.12881834798077,401.9502831329337 L383.60706066560056,402.1634740268334 M383.60706066560056,402.1634740268334 L384.1727864904745,402.17979176832984 M384.1727864904745,402.17979176832984 L384.7931179479724,401.9982894672047 M384.7931179479724,401.9982894672047 L385.43200348808296,401.62951622915165 M385.43200348808296,401.62951622915165 L386.052314032545,401.09490453943397 M386.052314032545,401.09490453943397 L386.6180011032531,400.4255242502359 M386.6180011032531,400.4255242502359 L387.09619062715626,399.6602761517181 M387.09619062715626,399.6602761517181 L387.4590927088697,398.84363161373926 M387.4590927088697,398.84363161373926 L387.6856170176683,398.0230496874987 M387.6856170176683,398.0230496874987 L387.76259908825347,397.2462173236046 M216.70053174709722,495.9838172204874 L216.62305323380363,495.2957265708872 M216.62305323380363,495.2957265708872 L216.39588825885386,494.7366206280112 M216.39588825885386,494.7366206280112 L216.03223785278539,494.3389924866596 M216.03223785278539,494.3389924866596 L215.55321934315182,494.12595895824285 M215.55321934315182,494.12595895824285 L214.98669970580733,494.1098895784628 M214.98669970580733,494.1098895784628 L214.36557841275248,494.2917316556463 M214.36557841275248,494.2917316556463 L213.72597321175357,494.6609075607602 M213.72597321175357,494.6609075607602 L213.10503354701544,495.19597596786855 M213.10503354701544,495.19597596786855 L212.53886748604592,495.86582810567216 M212.53886748604592,495.86582810567216 L212.06037169935414,496.63154056786414 M212.06037169935414,496.63154056786414 L211.69733701102936,497.4486183012373 M211.69733701102936,497.4486183012373 L211.4708943702539,498.2695576129612 M211.4708943702539,498.2695576129612 L211.3942040785101,499.04664737568385 M211.3942040785101,499.04664737568385 L211.47167975271154,499.73474897825275 M211.47167975271154,499.73474897825275 L211.69886029935725,500.2938470201779 M211.69886029935725,500.2938470201779 L212.06254112050175,500.69145021667765 M212.06254112050175,500.69145021667765 L212.54155304833813,500.90447103531295 M212.54155304833813,500.90447103531295 L213.10807548819852,500.92052108835634 M213.10807548819852,500.92052108835634 L213.7291921312069,500.73866450621273 M213.7291921312069,500.73866450621273 L214.368786295064,500.3694822411005 M214.368786295064,500.3694822411005 L214.98971106366932,499.83441707574076 M214.98971106366932,499.83441707574076 L215.55586178247688,499.1645770388788 M215.55586178247688,499.1645770388788 L216.0343614900793,498.3988757531699 M216.0343614900793,498.3988757531699 L216.3973735909567,497.5818274752096 M216.3973735909567,497.5818274752096 L216.62381718310422,496.76090558562265 M216.62381718310422,496.76090558562265 L216.70053174709722,495.9838172204874 M747.6558289317566,244.0896849538611 L747.7248378405425,174.00900156076858 M747.6558289317566,244.0896849538611 L730.6970560987672,234.32024276513948 M747.7248378405425,174.00900156076858 L730.7626914334708,164.24150787829007 M52.344470785692295,625.9455335405232 L69.30324352568732,635.7584921217099 M69.30324352568732,635.7584921217099 L747.6558289317566,244.0896849538611 M69.30324352568732,635.7584921217099 L69.23730847346093,565.5998681817114 M52.27516215945758,555.7888581118918 L69.23730847346093,565.5998681817114 M691.7485684010358,227.65254537193235 L691.6723296766168,226.96486810960602 M691.6723296766168,226.96486810960602 L691.4467913573139,226.40588960869133 M691.4467913573139,226.40588960869133 L691.0850599440994,226.0080955552923 M691.0850599440994,226.0080955552923 L690.6081887878727,225.7945849591519 M690.6081887878727,225.7945849591519 L690.0438563391724,225.77779185656846 M690.0438563391724,225.77779185656846 L689.4248825287204,225.95867815719123 M689.4248825287204,225.95867815719123 L688.7872602342629,226.32672181048866 M688.7872602342629,226.32672181048866 L688.16799237598,226.86056534789844 M688.16799237598,226.86056534789844 L687.6030897947562,227.5291712212384 M687.6030897947562,227.5291712212384 L687.1254070985401,228.2936703449679 M687.1254070985401,228.2936703449679 L686.7627040607942,229.10962883698332 M686.7627040607942,229.10962883698332 L686.5360295538649,229.92964430168212 M686.5360295538649,229.92964430168212 L686.4585573550503,230.70605930601678 M686.4585573550503,230.70605930601678 L686.5348416480742,231.39371955082512 M686.5348416480742,231.39371955082512 L686.7603954660485,231.95269018927974 M686.7603954660485,231.95269018927974 L687.1221087574766,232.3504873364892 M687.1221087574766,232.3504873364892 L687.5989895035177,232.56397593542715 M687.5989895035177,232.56397593542715 L688.1633247656534,232.58074975879236 M688.1633247656534,232.58074975879236 L688.7822939704186,232.39984898025364 M688.7822939704186,232.39984898025364 L689.4199052957906,232.03179896714255 M689.4199052957906,232.03179896714255 L690.0391583335968,231.49795864446935 M690.0391583335968,231.49795864446935 L690.604045638252,230.82936482429434 M690.604045638252,230.82936482429434 L691.0817161003381,230.06488616460786 M691.0817161003381,230.06488616460786 L691.4444450395602,229.24892908940168 M691.4444450395602,229.24892908940168 L691.6711204693556,228.42893100827737 M691.6711204693556,228.42893100827737 L691.7485684010358,227.65254537193235 M691.7485684010358,227.65254537193235 L686.6606267897196,224.72127168327833 M521.0214098736883,326.20011983976144 L520.9447227898556,325.5122917669323 M520.9447227898556,325.5122917669323 L520.7185976057817,324.95326620528596 M520.7185976057817,324.95326620528596 L520.3561749268172,324.5555315767453 M520.3561749268172,324.5555315767453 L519.878532618699,324.3421924756356 M519.878532618699,324.3421924756356 L519.3134100725022,324.3256636680703 M519.3134100725022,324.3256636680703 L518.6936655505051,324.50689608301207 M518.6936655505051,324.50689608301207 L518.0553048909508,324.8753659299826 M518.0553048909508,324.8753659299826 L517.4354290246156,325.4096591686881 M517.4354290246156,325.4096591686881 L516.8700760711486,326.0787167663225 M516.8700760711486,326.0787167663225 L516.3920873755017,326.84366614932884 M516.3920873755017,326.84366614932884 L516.0292561838828,327.66003820901506 M516.0292561838828,327.66003820901506 L515.8026620875075,328.4803930819241 M515.8026620875075,328.4803930819241 L515.7254741902875,329.2570536084633 M515.7254741902875,329.2570536084633 L515.802182662721,329.94487863143803 M515.802182662721,329.94487863143803 L516.0283233720647,330.50389631650336 M516.0283233720647,330.50389631650336 L516.3907521562724,330.9016200461776 M516.3907521562724,330.9016200461776 L516.8684121433089,331.1149324636745 M516.8684121433089,331.1149324636745 L517.4335294181537,331.1314466391884 M517.4335294181537,331.1314466391884 L518.0532773994908,330.95019507191245 M518.0532773994908,330.95019507191245 L518.6916270649499,330.58171886486787 M518.6916270649499,330.58171886486787 L519.3114800023848,330.0474335153736 M519.3114800023848,330.0474335153736 L519.8768257365068,329.37838332393414 M519.8768257365068,329.37838332393414 L520.3547941028758,328.6134590913097 M520.3547941028758,328.6134590913097 L520.7176269863176,327.7971024410856 M520.7176269863176,327.7971024410856 L520.9442220158087,326.97676496591856 M520.9442220158087,326.97676496591856 L521.0214098736883,326.20011983976144 M521.0214098736883,326.20011983976144 L515.9334644689752,323.26556327737484 M392.85054524900363,400.18323966181293 L392.7735210149683,399.4952986883394 M392.7735210149683,399.4952986883394 L392.54695516494695,398.93623784618205 M392.54695516494695,398.93623784618205 L392.18401316911275,398.53854803743434 M392.18401316911275,398.53854803743434 L391.70578701010396,398.3253405236228 M391.70578701010396,398.3253405236228 L391.1400689393423,398.30901149997 M391.1400689393423,398.30901149997 L390.5197359009146,398.49050947884706 M390.5197359009146,398.49050947884706 L389.88083934734465,398.85928865062147 M389.88083934734465,398.85928865062147 L389.26051087980045,399.3939172725742 M389.26051087980045,399.3939172725742 L388.69480354170804,400.06332338928314 M388.69480354170804,400.06332338928314 L388.2165952030406,400.82860497854466 M388.2165952030406,400.82860497854466 L387.8536779667743,401.6452816505911 M387.8536779667743,401.6452816505911 L387.62714438987354,402.4658912411288 M387.62714438987354,402.4658912411288 L387.55016005892793,403.2427417863299 M387.55016005892793,403.2427417863299 L387.62719736808856,403.9306845164749 M387.62719736808856,403.9306845164749 L387.85377901606927,404.48973732555044 M387.85377901606927,404.48973732555044 L388.2167352132546,404.8874115559962 M388.2167352132546,404.8874115559962 L388.69497047084093,405.1005973260906 M388.69497047084093,405.1005973260906 L389.2606913483104,405.1169070400008 M389.2606913483104,405.1169070400008 L389.8810202585329,404.9353942740813 M389.8810202585329,404.9353942740813 L390.51990579953093,404.5666087422315 M390.51990579953093,404.5666087422315 L391.14021889299175,404.03198364419137 M391.14021889299175,404.03198364419137 L391.70591091267596,403.36258961136025 M391.70591091267596,403.36258961136025 L392.1841074979412,402.5973282325786 M392.1841074979412,402.5973282325786 L392.5470183430632,401.7806716494521 M392.5470183430632,401.7806716494521 L392.7735526080462,400.960079613157 M392.7735526080462,400.960079613157 L392.85054524900363,400.18323966181293 M392.85054524900363,400.18323966181293 L387.76259908825347,397.2462173236046 M221.78847612195693,498.9241320970269 L221.71100817745807,498.23603682605744 M221.71100817745807,498.23603682605744 L221.4838531540591,497.6769294989183 M221.4838531540591,497.6769294989183 L221.12021150393687,497.2793032908817 M221.12021150393687,497.2793032908817 L220.641200045783,497.0662749013324 M220.641200045783,497.0662749013324 L220.07468534555915,497.05021356684784 M220.07468534555915,497.05021356684784 L219.4535665883451,497.2320661286864 M219.4535665883451,497.2320661286864 L218.81396137450903,497.6012543481299 M218.81396137450903,497.6012543481299 L218.1930191490015,498.1363361840216 M218.1930191490015,498.1363361840216 L217.62684812817804,498.8062020842135 M217.62684812817804,498.8062020842135 L217.14834527078915,499.57192784271 M217.14834527078915,499.57192784271 L216.78530181193358,500.3890176338442 M216.78530181193358,500.3890176338442 L216.55884921050372,501.2099670633806 M216.55884921050372,501.2099670633806 L216.4821483468715,501.98706441591844 M216.4821483468715,501.98706441591844 L216.55961345236653,502.67517064001566 M216.55961345236653,502.67517064001566 L216.78678404770582,503.2342700657817 M216.78678404770582,503.2342700657817 L217.15045611324837,503.63187132805905 M217.15045611324837,503.63187132805905 L217.62946099000334,503.84488700748693 M217.62946099000334,503.84488700748693 L218.1959784930454,503.8609290147106 M218.1959784930454,503.8609290147106 L218.81709260038332,503.67906194761633 M218.81709260038332,503.67906194761633 L219.45668677707687,503.3098673681748 M219.45668677707687,503.3098673681748 L220.07761410628012,502.77478877432776 M220.07761410628012,502.77478877432776 L220.64376978463858,502.1049349756018 M220.64376978463858,502.1049349756018 L221.12227656253967,501.33922039392826 M221.12227656253967,501.33922039392826 L221.48529743360385,500.52216005911424 M221.48529743360385,500.52216005911424 L221.71175098616254,499.7012280521369 M221.71175098616254,499.7012280521369 L221.78847612195693,498.9241320970269 M221.78847612195693,498.9241320970269 L216.70053174709722,495.9838172204874 M69.23730847346093,565.5998681817114 L747.7248378405425,174.00900156076858 M233.66100650930957,505.7852483255356 L233.58425670340125,506.5623619908752 M233.58425670340125,506.5623619908752 L233.35777990778897,507.3833176059458 M233.35777990778897,507.3833176059458 L232.99473857146498,508.20040607477944 M232.99473857146498,508.20040607477944 L232.51621529540114,508.9661516821636 M232.51621529540114,508.9661516821636 L231.9500480446951,509.6360375940274 M231.9500480446951,509.6360375940274 L231.32911474144228,510.1711475233382 M231.32911474144228,510.1711475233382 L230.6895205361774,510.5403708386113 M230.6895205361774,510.5403708386113 L230.06841234740574,510.72226237291784 M230.06841234740574,510.72226237291784 L229.50190636611327,510.70623914139577 M229.50190636611327,510.70623914139577 L229.02291794474746,510.49323545524607 M229.02291794474746,510.49323545524607 L228.6592663120016,510.0956387075166 M228.6592663120016,510.0956387075166 L228.43211893945113,509.53653605363917 M228.43211893945113,509.53653605363917 L228.354678497181,508.8484190462658 M228.354678497181,508.8484190462658 L228.43140403113023,508.0713039838707 M228.43140403113023,508.0713039838707 L228.65787987618165,507.25033094525605 M228.65787987618165,507.25033094525605 L229.0209438010995,506.43321301798517 M229.0209438010995,506.43321301798517 L229.49946315758106,505.66745623298465 M229.49946315758106,505.66745623298465 L230.0656457514591,504.99755821843155 M230.0656457514591,504.99755821843155 L230.68659395141623,504.46244504638497 M230.68659395141623,504.46244504638497 L231.32619919382512,504.0932280911092 M231.32619919382512,504.0932280911092 L231.94731203207544,503.9113510627486 M231.94731203207544,503.9113510627486 L232.51381520984444,503.92739362275427 M232.51381520984444,503.92739362275427 L232.9928102116795,504.14041001981855 M232.9928102116795,504.14041001981855 L233.3564314282015,504.53803171542467 M233.3564314282015,504.53803171542467 L233.5835632282417,505.0971422716612 M233.5835632282417,505.0971422716612 L233.66100650930957,505.7852483255356 M404.7230794340075,407.03667266027804 L404.6460621262732,407.8135303159608 M404.6460621262732,407.8135303159608 L404.4195046281007,408.6341459432315 M404.4195046281007,408.6341459432315 L404.05657333353713,409.4508306330614 M404.05657333353713,409.4508306330614 L403.5783602709625,410.2161230009156 M403.5783602709625,410.2161230009156 L403.01265670360647,410.88554910434164 M403.01265670360647,410.88554910434164 L402.39233766316136,411.4202054907894 M402.39233766316136,411.4202054907894 L401.753452121473,411.78901971055626 M401.753452121473,411.78901971055626 L401.13312915689437,411.9705568966508 M401.13312915689437,411.9705568966508 L400.5674198258742,411.9542659158924 M400.5674198258742,411.9542659158924 L400.0892010445639,411.74109210313316 M400.0892010445639,411.74109210313316 L399.7262652960359,411.34342235918035 M399.7262652960359,411.34342235918035 L399.499706880755,410.78436630487545 M399.499706880755,410.78436630487545 L399.42269423820477,410.09641278626805 M399.42269423820477,410.09641278626805 L399.4997032361322,409.3195445363843 M399.4997032361322,409.3195445363843 L399.7262600467904,408.49891135387554 M399.7262600467904,408.49891135387554 L400.0891977332993,407.68220657373826 M400.0891977332993,407.68220657373826 L400.5674225502051,406.9168939939087 M400.5674225502051,406.9168939939087 L401.13314143667435,406.24745580538394 M401.13314143667435,406.24745580538394 L401.75347585160097,405.7127958943116 M401.75347585160097,405.7127958943116 L402.39237240586124,405.3439880346203 M402.39237240586124,405.3439880346203 L403.012699498247,405.1624656362807 M403.012699498247,405.1624656362807 L403.5784060218544,405.17877592800306 M403.5784060218544,405.17877592800306 L404.0566157036582,405.3919714859749 M404.0566157036582,405.3919714859749 L404.41953725003407,405.7896568096169 M404.41953725003407,405.7896568096169 L404.6460798667875,406.3487208979987 M404.6460798667875,406.3487208979987 L404.7230794340075,407.03667266027804 M532.8939420175354,333.0477988817967 L532.8167294954046,333.8244617076416 M532.8167294954046,333.8244617076416 L532.5901112401291,334.64482276097453 M532.5901112401291,334.64482276097453 L532.2272579190999,335.4612074976446 M532.2272579190999,335.4612074976446 L531.7492730910355,336.2261626920922 M531.7492730910355,336.2261626920922 L531.1839158277087,336.8952449223189 M531.1839158277087,336.8952449223189 L530.5640569635359,337.429561524988 M530.5640569635359,337.429561524988 L529.9257073182362,337.79806638385156 M529.9257073182362,337.79806638385156 L529.3059653027842,337.9793423364155 M529.3059653027842,337.9793423364155 L528.7408595928448,337.96284686189404 M528.7408595928448,337.96284686189404 L528.2632160976832,337.74954637488486 M528.2632160976832,337.74954637488486 L527.9008077739677,337.351827111104 M527.9008077739677,337.351827111104 L527.6746903047067,336.7928061680125 M527.6746903047067,336.7928061680125 L527.5980065013855,336.1049703523252 M527.5980065013855,336.1049703523252 L527.6752190630623,335.3282921253802 M527.6752190630623,335.3282921253802 L527.9018363857899,334.5079136733219 M527.9018363857899,334.5079136733219 L528.264688015797,333.69151352616666 M528.264688015797,333.69151352616666 L528.7426931740667,332.926533179458 M528.7426931740667,332.926533179458 L529.3080576574423,332.2574435421801 M529.3080576574423,332.2574435421801 L529.9279394509117,331.72311904924914 M529.9279394509117,331.72311904924914 L530.566300090306,331.35462055046054 M530.566300090306,331.35462055046054 L531.1860386460194,331.1733637512829 M531.1860386460194,331.1733637512829 L531.7511496266056,331.1898738587131 M531.7511496266056,331.1898738587131 L532.228775441921,331.4032010312142 M532.228775441921,331.4032010312142 L532.5911776595938,331.8009311948841 M532.5911776595938,331.8009311948841 L532.8172796030185,332.3599600155387 M532.8172796030185,332.3599600155387 L532.8939420175354,333.0477988817967 M703.6210913241976,234.49256373715968 L703.5436187316636,235.26896706699537 M703.5436187316636,235.26896706699537 L703.3169200859666,236.0889887092022 M703.3169200859666,236.0889887092022 L702.9541707249502,236.90497384387717 M702.9541707249502,236.90497384387717 L702.4764838219537,237.669483429382 M702.4764838219537,237.669483429382 L701.9115850126632,238.3381092461265 M701.9115850126632,238.3381092461265 L701.2923260750456,238.87198077565733 M701.2923260750456,238.87198077565733 L700.6547147975489,239.24005939143427 M700.6547147975489,239.24005939143427 L700.0357515855683,239.42098450860001 M700.0357515855683,239.42098450860001 L699.4714279128561,239.40422934440898 M699.4714279128561,239.40422934440898 L698.9945636794,239.19075263964407 M698.9945636794,239.19075263964407 L698.6328708641629,238.79295993033168 M698.6328708641629,238.79295993033168 L698.407340296048,238.23398601684386 M698.407340296048,238.23398601684386 L698.3310806754228,237.54631497429403 M698.3310806754228,237.54631497429403 L698.4085775352955,236.76988227466455 M698.4085775352955,236.76988227466455 L698.6352752586947,235.94984324790101 M698.6352752586947,235.94984324790101 L698.9979987190366,235.13385669648127 M698.9979987190366,235.13385669648127 L699.4756978570897,234.36932664541962 M699.4756978570897,234.36932664541962 L700.04061194365,233.70068877429372 M700.04061194365,233.70068877429372 L700.659885702139,233.1668140293403 M700.659885702139,233.1668140293403 L701.2975079487189,232.7987417733787 M701.2975079487189,232.7987417733787 L701.9164757659871,232.61783113481786 M701.9164757659871,232.61783113481786 L702.4807966245592,232.6346055794456 M702.4807966245592,232.6346055794456 L702.9576512672743,232.84810428292715 M702.9576512672743,232.84810428292715 L703.319362203498,233.24589389836336 M703.319362203498,233.24589389836336 L703.5448772723769,233.80487567529087 M703.5448772723769,233.80487567529087 L703.6210913241976,234.49256373715968 M691.7485684010358,227.65254537193235 L694.5025668114861,228.01896146537365 M694.5025668114861,228.01896146537365 L697.2565766869102,228.38537908421557 M697.2565766869102,228.38537908421557 L697.1193369461505,227.14757379453957 M697.1193369461505,227.14757379453957 L696.7134040019203,226.14139722536962 M696.7134040019203,226.14139722536962 L696.0623469330508,225.42533618856893 M696.0623469330508,225.42533618856893 L695.2039813281272,225.04102166230086 M695.2039813281272,225.04102166230086 L694.188210280241,225.0107772085118 M694.188210280241,225.0107772085118 L693.0740571869167,225.33637510772758 M693.0740571869167,225.33637510772758 L691.9262775221696,225.99889363327088 M691.9262775221696,225.99889363327088 L690.8116139602339,226.95981126010406 M690.8116139602339,226.95981126010406 L689.7947917694114,228.1633171839563 M689.7947917694114,228.1633171839563 L688.9349327417342,229.53944688691433 M688.9349327417342,229.53944688691433 L688.2820005108213,231.0082313296911 M688.2820005108213,231.0082313296911 L687.8739880386329,232.48427681193414 M687.8739880386329,232.48427681193414 L687.7345570038665,233.88182620298278 M687.7345570038665,233.88182620298278 L687.8718397771443,235.1196344061363 M687.8718397771443,235.1196344061363 L688.2778229370388,236.12578550054982 M688.2778229370388,236.12578550054982 L688.9289581920787,236.84177753772687 M688.9289581920787,236.84177753772687 L689.787354860812,237.22603068632844 M689.787354860812,237.22603068632844 L690.8031350248777,237.2562126748948 M690.8031350248777,237.2562126748948 L691.917240909019,236.93058650449578 M691.917240909019,236.93058650449578 L693.0649850323355,236.26804737222986 M693.0649850323355,236.26804737222986 L694.1796328637233,235.30712152447632 M694.1796328637233,235.30712152447632 L695.1964055589269,234.10365465407367 M695.1964055589269,234.10365465407367 L696.0562249545208,232.72758136094527 M696.0562249545208,232.72758136094527 L696.7091042053294,231.25888053212805 M696.7091042053294,231.25888053212805 L697.117119667987,229.7828913732598 M697.117119667987,229.7828913732598 L697.2565766869102,228.38537908421557 M521.0214098736883,326.20011983976144 L523.7765944667592,326.56694630397413 M523.7765944667592,326.56694630397413 L526.5317905361633,326.93377429615083 M526.5317905361633,326.93377429615083 L526.393766355945,325.6956845071934 M526.393766355945,325.6956845071934 L525.9867690027756,324.68942788326154 M525.9867690027756,324.68942788326154 L525.3344369979559,323.97349151057324 M525.3344369979559,323.97349151057324 L524.4746913844463,323.5894810239534 M524.4746913844463,323.5894810239534 L523.4574836208933,323.55972069353896 M523.4574836208933,323.55972069353896 L522.341936756721,323.8859453470736 M522.341936756721,323.8859453470736 L521.1928796636003,324.54920122664805 M521.1928796636003,324.54920122664805 L520.0770974460718,325.51094231965396 M520.0770974460718,325.51094231965396 L519.0594354856187,326.7152781619523 M519.0594354856187,326.7152781619523 L518.1990482475414,328.09220531153335 M518.1990482475414,328.09220531153335 L517.5459305263689,329.56170811625174 M517.5459305263689,329.56170811625174 L517.1380547289125,331.03836920868184 M517.1380547289125,331.03836920868184 L516.9991063875034,332.43637732230525 M516.9991063875034,332.43637732230525 L517.1371817667637,333.6744653431581 M517.1371817667637,333.6744653431581 L517.5442294220654,334.680696446251 M517.5442294220654,334.680696446251 L518.196607390878,335.39658239233796 M518.196607390878,335.39658239233796 L519.0563840991681,335.7805314336647 M519.0563840991681,335.7805314336647 L520.0736009665259,335.81022924194997 M520.0736009665259,335.81022924194997 L521.1891328570352,335.4839576472829 M521.1891328570352,335.4839576472829 L522.338154329293,334.8206811610703 M522.338154329293,334.8206811610703 L523.4538884391577,333.8589505167044 M523.4538884391577,333.8589505167044 L524.4715008258652,332.65465378471 M524.4715008258652,332.65465378471 L525.3318483820537,331.2777831127875 M525.3318483820537,331.2777831127875 L525.9849454017608,329.80834534902016 M525.9849454017608,329.80834534902016 L526.3928242223274,328.3317406260352 M526.3928242223274,328.3317406260352 L526.5317905361633,326.93377429615083 M392.85054524900363,400.18323966181293 L395.6066200894845,400.55037435668646 M395.6066200894845,400.55037435668646 L398.3627065411961,400.9175105085067 M398.3627065411961,400.9175105085067 L398.22408522597044,399.6792118858794 M398.22408522597044,399.6792118858794 L397.81628943167755,398.6728947879575 M397.81628943167755,398.6728947879575 L397.16301503519367,397.9570434923809 M397.16301503519367,397.9570434923809 L396.3022233880213,397.57326703861486 M396.3022233880213,397.57326703861486 L395.2839386679278,397.5438692120903 M395.2839386679278,397.5438692120903 L394.16733831343873,397.8705685120549 M394.16733831343873,397.8705685120549 L393.0173166881594,398.5343811364846 M393.0173166881594,398.5343811364846 L391.9007124907067,399.49673014028906 M391.9007124907067,399.49673014028906 L390.88242190882556,400.7016879791397 M390.88242190882556,400.7016879791397 L390.0216289912398,402.0792190718834 M390.0216289912398,402.0792190718834 L389.36836304940016,403.5492663518933 M389.36836304940016,403.5492663518933 L388.96059113796883,405.026388865956 M388.96059113796883,405.026388865956 L388.8220126608041,406.4247370355955 M388.8220126608041,406.4247370355955 L388.9606765265876,407.6630389066803 M388.9606765265876,407.6630389066803 L389.3685229406822,408.66933030328505 M389.3685229406822,408.66933030328505 L390.02184360303033,409.38513097798983 M390.02184360303033,409.38513097798983 L390.88266611565047,409.76884608122236 M390.88266611565047,409.76884608122236 L391.90096018289483,409.7981811970923 M391.90096018289483,409.7981811970923 L393.01754501911455,409.47143522364547 M393.01754501911455,409.47143522364547 L394.16753096366847,408.8076019925755 M394.16753096366847,408.8076019925755 L395.2840874919809,407.84526316971585 M395.2840874919809,407.84526316971585 L396.30232818883223,406.64034462973467 M396.30232818883223,406.64034462973467 L397.16308163926846,405.2628699197954 M397.16308163926846,405.2628699197954 L397.8163266203492,403.79288787508 M397.8163266203492,403.79288787508 L398.224101326776,402.3158219109086 M398.224101326776,402.3158219109086 L398.3627065411961,400.9175105085067 M221.78847612195693,498.9241320970269 L224.5457387736098,499.29167837079217 M224.5457387736098,499.29167837079217 L227.3030129215144,499.6592261770209 M227.3030129215144,499.6592261770209 L227.1635896810058,498.4206517021227 M227.1635896810058,498.4206517021227 L226.75473055421006,497.4142525657169 M226.75473055421006,497.4142525657169 L226.10018985386716,496.69851975246667 M226.10018985386716,496.69851975246667 L225.23801700315275,496.3150470619114 M225.23801700315275,496.3150470619114 L224.21828876938588,496.2861366055725 M224.21828876938588,496.2861366055725 L223.10027470233877,496.6134738218583 M223.10027470233877,496.6134738218583 L221.94897087790093,497.2780265540998 M221.94897087790093,497.2780265540998 L220.8312610732088,498.24119184105314 M220.8312610732088,498.24119184105314 L219.81212652098628,499.44698270024816 M219.81212652098628,499.44698270024816 L218.9508072910286,500.82531111028794 M218.9508072910286,500.82531111028794 L218.29733660788597,502.2960890636505 M218.29733660788597,502.2960890636505 L217.889707418233,503.77382505985923 M217.889707418233,503.77382505985923 L217.75162279989314,505.1726269535067 M217.75162279989314,505.1726269535067 L217.8910731152658,506.4112136424808 M217.8910731152658,506.4112136424808 L218.29998269570035,507.41758717738816 M218.29998269570035,507.41758717738816 L218.95456947500395,508.1332694507562 M218.95456947500395,508.1332694507562 L219.81677347491376,508.51668057718143 M219.81677347491376,508.51668057718143 L220.83651079063694,508.5455284116443 M220.83651079063694,508.5455284116443 L221.9545097925066,508.2181441976965 M221.9545097925066,508.2181441976965 L223.10577785640447,507.55357085894883 M223.10577785640447,507.55357085894883 L224.22343939665885,506.5904160768608 M224.22343939665885,506.5904160768608 L225.24252423803608,505.38466442771823 M225.24252423803608,505.38466442771823 L226.10380369833396,504.00639261438783 M226.10380369833396,504.00639261438783 L226.75725366423083,502.53567981523753 M226.75725366423083,502.53567981523753 L227.16488593478505,501.0580002690499 M227.16488593478505,501.0580002690499 L227.3030129215144,499.6592261770209 M228.5726661235311,502.8447045949227 L228.49592689097034,503.6218106701147 M228.49592689097034,503.6218106701147 L228.26946005702567,504.4427561672856 M228.26946005702567,504.4427561672856 L227.9064274917826,505.2598325784492 M227.9064274917826,505.2598325784492 L227.42791128649685,506.02556488879316 M227.42791128649685,506.02556488879316 L226.8617489953789,506.69543703752004 M226.8617489953789,506.69543703752004 L226.24081825231653,507.2305335369478 M226.24081825231653,507.2305335369478 L225.60122405905986,507.5997445364539 M225.60122405905986,507.5997445364539 L224.98011333341668,507.7816255844135 M224.98011333341668,507.7816255844135 L224.41360241380187,507.7655943057985 M224.41360241380187,507.7655943057985 L223.9346069396352,507.5525854793649 M223.9346069396352,507.5525854793649 L223.57094654945223,507.15498679659567 M223.57094654945223,507.15498679659567 L223.34378922375132,506.59588552604873 M223.34378922375132,506.59588552604873 L223.2663382110289,505.90777314002975 M223.2663382110289,505.90777314002975 L223.3430531715435,505.1306656676226 M223.3430531715435,505.1306656676226 L223.5695190546839,504.30970274732977 M223.5695190546839,504.30970274732977 L223.9325742081769,503.49259687863633 M223.9325742081769,503.49259687863633 L224.41108649348183,502.72685339101616 M224.41108649348183,502.72685339101616 L224.97726412746877,502.0569691401242 M224.97726412746877,502.0569691401242 L225.598209767064,501.5218693982569 M225.598209767064,501.5218693982569 L226.23781499746406,501.15266475874836 M226.23781499746406,501.15266475874836 L226.8589303727563,500.9707982164388 M226.8589303727563,500.9707982164388 L227.42543848914985,500.98684882301353 M227.42543848914985,500.98684882301353 L227.9044405441842,501.1998703600217 M227.9044405441842,501.1998703600217 L228.26807051848763,501.59749398976004 M228.26807051848763,501.59749398976004 L228.4952122719227,502.1566031622436 M228.4952122719227,502.1566031622436 L228.5726661235311,502.8447045949227 M228.5726661235311,502.8447045949227 L233.66100650930957,505.7852483255356 M399.63473748399946,404.0994218522991 L399.55773074818217,404.8762719203588 M399.55773074818217,404.8762719203588 L399.3311832074494,405.6968774370661 M399.3311832074494,405.6968774370661 L398.9682606771872,406.5135500809333 M398.9682606771872,406.5135500809333 L398.4900546764532,407.27882916744977 M398.4900546764532,407.27882916744977 L397.9243560581097,407.9482415259724 M397.9243560581097,407.9482415259724 L397.3040395662556,408.48288450270474 M397.3040395662556,408.48288450270474 L396.6651540246265,408.8516864272404 M396.6651540246265,408.8516864272404 L396.0448285115717,409.0332131471477 M396.0448285115717,409.0332131471477 L395.47911423164385,409.0169141375329 M395.47911423164385,409.0169141375329 L395.0008883885814,408.8037351998948 M395.0008883885814,408.8037351998948 L394.63794387581925,408.40606353292657 M394.63794387581925,408.40606353292657 L394.4113755031406,407.84700886928897 M394.4113755031406,407.84700886928897 L394.3343522886876,407.1590599742588 M394.3343522886876,407.1590599742588 L394.4113507146102,406.3821993121456 M394.4113507146102,406.3821993121456 L394.6378975675852,405.56157624062683 M394.6378975675852,405.56157624062683 L395.0008264894494,404.74488350704695 M395.0008264894494,404.74488350704695 L395.47904424411644,403.9795842091961 M395.47904424411644,403.9795842091961 L396.04475818127094,403.310159766098 M396.04475818127094,403.310159766098 L396.66509004743597,402.7755132650462 M396.66509004743597,402.7755132650462 L397.3039866016371,402.4067177005861 M397.3039866016371,402.4067177005861 L397.9243162426696,402.22520576812826 M397.9243162426696,402.22520576812826 L398.49002771548686,402.24152408818355 M398.49002771548686,402.24152408818355 L398.96824445944094,402.45472477039334 M398.96824445944094,402.45472477039334 L399.3311747703942,402.85241201645624 M399.3311747703942,402.85241201645624 L399.5577273447889,403.4114747137443 M399.5577273447889,403.4114747137443 L399.63473748399946,404.0994218522991 M399.63473748399946,404.0994218522991 L404.7230794340075,407.03667266027804 M527.8056009898103,330.1130141373023 L527.7283990385138,330.8896693775172 M527.7283990385138,330.8896693775172 L527.501790737504,331.7100203257768 M527.501790737504,331.7100203257768 L527.1389461756958,332.5263930251661 M527.1389461756958,332.5263930251661 L526.6609684027801,333.29133494995466 M526.6609684027801,333.29133494995466 L526.095616080551,333.9604034489103 M526.095616080551,333.9604034489103 L525.4757597562923,334.4947066569645 M525.4757597562923,334.4947066569645 L524.8374101021159,334.86319923606806 M524.8374101021159,334.86319923606806 L524.2176655295134,335.0444647373972 M524.2176655295134,335.0444647373972 L523.6525548627565,335.0279612478026 M523.6525548627565,335.0279612478026 L523.1749042991578,334.81465564742115 M523.1749042991578,334.81465564742115 L522.8124872061364,334.41693446945374 M522.8124872061364,334.41693446945374 L522.5863597763139,333.85791492251434 M522.5863597763139,333.85791492251434 L522.5096654000179,333.1700837322261 M522.5096654000179,333.1700837322261 L522.5868673907721,332.3934130912187 M522.5868673907721,332.3934130912187 L522.8134747589907,331.57304474465525 M522.8134747589907,331.57304474465525 L523.1763176294337,330.7566566352193 M523.1763176294337,330.7566566352193 L523.6543157321571,329.991689558975 M523.6543157321571,329.991689558975 L524.2196752741331,329.3226136533351 M524.2196752741331,329.3226136533351 L524.8395545275189,328.7883025554694 M524.8395545275189,328.7883025554694 L525.4779151757898,328.4198163364404 M525.4779151757898,328.4198163364404 L526.097656288825,328.23856998804666 M526.097656288825,328.23856998804666 L526.6627722265307,328.25508811018267 M526.6627722265307,328.25508811018267 L527.1404051106808,328.4684203952506 M527.1404051106808,328.4684203952506 L527.5028160980023,328.8661524726687 M527.5028160980023,328.8661524726687 L527.7289280022317,329.42517989675036 M527.7289280022317,329.42517989675036 L527.8056009898103,330.1130141373023 M527.8056009898103,330.1130141373023 L532.8939420175354,333.0477988817967 M698.5327543115297,231.56106224919745 L698.4552922883736,232.337457996059 M698.4552922883736,232.337457996059 L698.2286035927063,233.157469540514 M698.2286035927063,233.157469540514 L697.865862984142,233.97344264947014 M697.865862984142,233.97344264947014 L697.3881831273861,234.73793898074706 M697.3881831273861,234.73793898074706 L696.8232892486637,235.40655108431466 M696.8232892486637,235.40655108431466 L696.2040328394198,235.94040923908162 M696.2040328394198,235.94040923908162 L695.5664215411687,236.3084755961651 M695.5664215411687,236.3084755961651 L694.947455760509,236.48939028209443 M694.947455760509,236.48939028209443 L694.383127120472,236.47262712075337 M694.383127120472,236.47262712075337 L693.906255809703,236.2591453181804 M693.906255809703,236.2591453181804 L693.5445542184323,235.86135070668053 M693.5445542184323,235.86135070668053 L693.3190136855662,235.30237819663415 M693.3190136855662,235.30237819663415 L693.2427434905583,234.61471178163904 M693.2427434905583,234.61471178163904 L693.3202297809655,233.83828666575687 M693.3202297809655,233.83828666575687 L693.5469175540911,233.0182577371661 M693.5469175540911,233.0182577371661 L693.9096322616374,232.2022832114375 M693.9096322616374,232.2022832114375 L694.3873243530529,231.4377664152526 M694.3873243530529,231.4377664152526 L694.9522335087445,230.76914225782505 M694.9522335087445,230.76914225782505 L695.5715047386905,230.23528088792938 M695.5715047386905,230.23528088792938 L696.2091270060262,229.86722089066063 M696.2091270060262,229.86722089066063 L696.8280973921446,229.68632068304078 M696.8280973921446,229.68632068304078 L697.3924232183435,229.7031031242965 M697.3924232183435,229.7031031242965 L697.8692849387685,229.9166069249371 M697.8692849387685,229.9166069249371 L698.2310046513685,230.31439844258875 M698.2310046513685,230.31439844258875 L698.4565296852406,230.87337881565523 M698.4565296852406,230.87337881565523 L698.5327543115297,231.56106224919745 M698.5327543115297,231.56106224919745 L703.6210913241976,234.49256373715968 M698.5327543115297,231.56106224919745 L697.8946597436741,229.9732063444132 M697.8946597436741,229.9732063444132 L697.2565766869102,228.38537908421557 M527.8056009898103,330.1130141373023 L527.1686900149004,328.52337987036566 M527.1686900149004,328.52337987036566 L526.5317905361633,326.93377429615083 M399.63473748399946,404.0994218522991 L398.9987162069465,402.5084518524277 M398.9987162069465,402.5084518524277 L398.3627065411961,400.9175105085067 M228.5726661235311,502.8447045949227 L227.9378337875777,501.25195099736277 M227.9378337875777,501.25195099736277 L227.3030129215144,499.6592261770209" stroke="black"  stroke-width="4"  fill="red"/>
<path d="M698.5327543115297,231.56106224919745 L698.4552922883736,232.337457996059 M698.4552922883736,232.337457996059 L698.2286035927063,233.157469540514 M698.2286035927063,233.157469540514 L697.865862984142,233.97344264947014 M697.865862984142,233.97344264947014 L697.3881831273861,234.73793898074706 M697.3881831273861,234.73793898074706 L696.8232892486637,235.40655108431466 M696.8232892486637,235.40655108431466 L696.2040328394198,235.94040923908162 M696.2040328394198,235.94040923908162 L695.5664215411687,236.3084755961651 M695.5664215411687,236.3084755961651 L694.947455760509,236.48939028209443 M694.947455760509,236.48939028209443 L694.383127120472,236.47262712075337 M694.383127120472,236.47262712075337 L693.906255809703,236.2591453181804 M693.906255809703,236.2591453181804 L693.5445542184323,235.86135070668053 M693.5445542184323,235.86135070668053 L693.3190136855662,235.30237819663415 M693.3190136855662,235.30237819663415 L693.2427434905583,234.61471178163904 M693.2427434905583,234.61471178163904 L693.3202297809655,233.83828666575687 M693.3202297809655,233.83828666575687 L693.5469175540911,233.0182577371661 M693.5469175540911,233.0182577371661 L693.9096322616374,232.2022832114375 M693.9096322616374,232.2022832114375 L694.3873243530529,231.4377664152526 M694.3873243530529,231.4377664152526 L694.9522335087445,230.76914225782505 M694.9522335087445,230.76914225782505 L695.5715047386905,230.23528088792938 M695.5715047386905,230.23528088792938 L696.2091270060262,229.86722089066063 M696.2091270060262,229.86722089066063 L696.8280973921446,229.68632068304078 M696.8280973921446,229.68632068304078 L697.3924232183435,229.7031031242965 M697.3924232183435,229.7031031242965 L697.8692849387685,229.9166069249371 M697.8692849387685,229.9166069249371 L698.2310046513685,230.31439844258875 M698.2310046513685,230.31439844258875 L698.4565296852406,230.87337881565523 M698.4565296852406,230.87337881565523 L698.5327543115297,231.56106224919745 M698.5327543115297,231.56106224919745 L697.8946597436741,229.9732063444132 M697.8946597436741,229.9732063444132 L697.2565766869102,228.38537908421557 M697.2565766869102,228.38537908421557 L697.1193369461505,227.14757379453957 M697.1193369461505,227.14757379453957 L696.7134040019203,226.14139722536962 M696.7134040019203,226.14139722536962 L696.0623469330508,225.42533618856893 M696.0623469330508,225.42533618856893 L695.2039813281272,225.04102166230086 M695.2039813281272,225.04102166230086 L694.188210280241,225.0107772085118 M694.188210280241,225.0107772085118 L693.0740571869167,225.33637510772758 M693.0740571869167,225.33637510772758 L691.9262775221696,225.99889363327088 M691.9262775221696,225.99889363327088 L690.8116139602339,226.95981126010406 M690.8116139602339,226.95981126010406 L689.7947917694114,228.1633171839563 M689.7947917694114,228.1633171839563 L688.9349327417342,229.53944688691433 M688.9349327417342,229.53944688691433 L688.2820005108213,231.0082313296911 M688.2820005108213,231.0082313296911 L687.8739880386329,232.48427681193414 M687.8739880386329,232.48427681193414 L687.7345570038665,233.88182620298278 M687.7345570038665,233.88182620298278 L687.8718397771443,235.1196344061363 M687.8718397771443,235.1196344061363 L688.2778229370388,236.12578550054982 M688.2778229370388,236.12578550054982 L688.9289581920787,236.84177753772687 M688.9289581920787,236.84177753772687 L689.787354860812,237.22603068632844 M689.787354860812,237.22603068632844 L690.8031350248777,237.2562126748948 M690.8031350248777,237.2562126748948 L691.917240909019,236.93058650449578 M691.917240909019,236.93058650449578 L693.0649850323355,236.26804737222986 M693.0649850323355,236.26804737222986 L694.1796328637233,235.30712152447632 M694.1796328637233,235.30712152447632 L695.1964055589269,234.10365465407367 M695.1964055589269,234.10365465407367 L696.0562249545208,232.72758136094527 M696.0562249545208,232.72758136094527 L696.7091042053294,231.25888053212805 M696.7091042053294,231.25888053212805 L697.117119667987,229.7828913732598 M697.117119667987,229.7828913732598 L697.2565766869102,228.38537908421557 M698.5327543115297,231.56106224919745 L715.4945376856415,241.33311411524124 M715.4945376856415,241.33311411524124 L715.4170404286531,242.1095351389744 M715.4170404286531,242.1095351389744 L715.1903185641286,242.92958034345105 M715.1903185641286,242.92958034345105 L714.8275487792382,243.74559353949408 M714.8275487792382,243.74559353949408 L714.3498454342166,244.51013405331767 M714.3498454342166,244.51013405331767 L713.7849351202083,245.17879186958785 M713.7849351202083,245.17879186958785 L713.1656702837315,245.71269460921695 M713.1656702837315,245.71269460921695 L712.5280590560433,246.08080183099588 M712.5280590560433,246.08080183099588 L711.9091018396482,246.26175129002684 M711.9091018396482,246.26175129002684 L711.3447897598664,246.24501478796225 M711.3447897598664,246.24501478796225 L710.867942043003,246.03154997986454 M710.867942043003,246.03154997986454 L710.5062697082328,245.63376171034068 M710.5062697082328,245.63376171034068 L710.280762394274,245.0747845229984 M710.280762394274,245.0747845229984 L710.2045274501143,244.3871026831047 M710.2045274501143,244.3871026831047 L710.2820489746459,243.61065228777352 M710.2820489746459,243.61065228777352 L710.5087699174408,242.79058969775772 M710.5087699174408,242.79058969775772 L710.871513802459,241.97457508503467 M710.871513802459,241.97457508503467 L711.3492293834634,241.2100141041403 M711.3492293834634,241.2100141041403 L711.9141549754431,240.54134423227197 M711.9141549754431,240.54134423227197 L712.5334346331858,240.00743827653417 M712.5334346331858,240.00743827653417 L713.1710568299548,239.6393374145722 M713.1710568299548,239.6393374145722 L713.7900186512384,239.45840243483508 M713.7900186512384,239.45840243483508 L714.3543279161756,239.47515821855512 M714.3543279161756,239.47515821855512 L714.831166041371,239.68864502688373 M714.831166041371,239.68864502688373 L715.1928564963273,240.0864302024656 M715.1928564963273,240.0864302024656 L715.418348310486,240.64541525422746 M715.418348310486,240.64541525422746 L715.4945376856415,241.33311411524124" stroke="black"  stroke-width="4"  fill="red"/>
<path d="M399.63473748399946,404.0994218522991 L399.55773074818217,404.8762719203588 M399.55773074818217,404.8762719203588 L399.3311832074494,405.6968774370661 M399.3311832074494,405.6968774370661 L398.9682606771872,406.5135500809333 M398.9682606771872,406.5135500809333 L398.4900546764532,407.27882916744977 M398.4900546764532,407.27882916744977 L397.9243560581097,407.9482415259724 M397.9243560581097,407.9482415259724 L397.3040395662556,408.48288450270474 M397.3040395662556,408.48288450270474 L396.6651540246265,408.8516864272404 M396.6651540246265,408.8516864272404 L396.0448285115717,409.0332131471477 M396.0448285115717,409.0332131471477 L395.47911423164385,409.0169141375329 M395.47911423164385,409.0169141375329 L395.0008883885814,408.8037351998948 M395.0008883885814,408.8037351998948 L394.63794387581925,408.40606353292657 M394.63794387581925,408.40606353292657 L394.4113755031406,407.84700886928897 M394.4113755031406,407.84700886928897 L394.3343522886876,407.1590599742588 M394.3343522886876,407.1590599742588 L394.4113507146102,406.3821993121456 M394.4113507146102,406.3821993121456 L394.6378975675852,405.56157624062683 M394.6378975675852,405.56157624062683 L395.0008264894494,404.74488350704695 M395.0008264894494,404.74488350704695 L395.47904424411644,403.9795842091961 M395.47904424411644,403.9795842091961 L396.04475818127094,403.310159766098 M396.04475818127094,403.310159766098 L396.66509004743597,402.7755132650462 M396.66509004743597,402.7755132650462 L397.3039866016371,402.4067177005861 M397.3039866016371,402.4067177005861 L397.9243162426696,402.22520576812826 M397.9243162426696,402.22520576812826 L398.49002771548686,402.24152408818355 M398.49002771548686,402.24152408818355 L398.96824445944094,402.45472477039334 M398.96824445944094,402.45472477039334 L399.3311747703942,402.85241201645624 M399.3311747703942,402.85241201645624 L399.5577273447889,403.4114747137443 M399.5577273447889,403.4114747137443 L399.63473748399946,404.0994218522991 M399.63473748399946,404.0994218522991 L398.9987162069465,402.5084518524277 M398.9987162069465,402.5084518524277 L398.3627065411961,400.9175105085067 M398.3627065411961,400.9175105085067 L398.22408522597044,399.6792118858794 M398.22408522597044,399.6792118858794 L397.81628943167755,398.6728947879575 M397.81628943167755,398.6728947879575 L397.16301503519367,397.9570434923809 M397.16301503519367,397.9570434923809 L396.3022233880213,397.57326703861486 M396.3022233880213,397.57326703861486 L395.2839386679278,397.5438692120903 M395.2839386679278,397.5438692120903 L394.16733831343873,397.8705685120549 M394.16733831343873,397.8705685120549 L393.0173166881594,398.5343811364846 M393.0173166881594,398.5343811364846 L391.9007124907067,399.49673014028906 M391.9007124907067,399.49673014028906 L390.88242190882556,400.7016879791397 M390.88242190882556,400.7016879791397 L390.0216289912398,402.0792190718834 M390.0216289912398,402.0792190718834 L389.36836304940016,403.5492663518933 M389.36836304940016,403.5492663518933 L388.96059113796883,405.026388865956 M388.96059113796883,405.026388865956 L388.8220126608041,406.4247370355955 M388.8220126608041,406.4247370355955 L388.9606765265876,407.6630389066803 M388.9606765265876,407.6630389066803 L389.3685229406822,408.66933030328505 M389.3685229406822,408.66933030328505 L390.02184360303033,409.38513097798983 M390.02184360303033,409.38513097798983 L390.88266611565047,409.76884608122236 M390.88266611565047,409.76884608122236 L391.90096018289483,409.7981811970923 M391.90096018289483,409.7981811970923 L393.01754501911455,409.47143522364547 M393.01754501911455,409.47143522364547 L394.16753096366847,408.8076019925755 M394.16753096366847,408.8076019925755 L395.2840874919809,407.84526316971585 M395.2840874919809,407.84526316971585 L396.30232818883223,406.64034462973467 M396.30232818883223,406.64034462973467 L397.16308163926846,405.2628699197954 M397.16308163926846,405.2628699197954 L397.8163266203492,403.79288787508 M397.8163266203492,403.79288787508 L398.224101326776,402.3158219109086 M398.224101326776,402.3158219109086 L398.3627065411961,400.9175105085067 M399.63473748399946,404.0994218522991 L416.59653796255907,413.89063923704015 M416.59653796255907,413.89063923704015 L416.51949598444156,414.6675145974668 M416.51949598444156,414.6675145974668 L416.29291525014884,415.4881538169022 M416.29291525014884,415.4881538169022 L415.92996350405866,416.30486661533934 M415.92996350405866,416.30486661533934 L415.4517339630569,417.07018997477394 M415.4517339630569,417.07018997477394 L414.8860188479433,417.7396481517613 M414.8860188479433,417.7396481517613 L414.2656938614651,418.27433582986896 M414.2656938614651,418.27433582986896 L413.6268083210195,418.6431787409024 M413.6268083210195,418.6431787409024 L413.00649130488716,418.8247403504237 M413.00649130488716,418.8247403504237 L412.4407935238254,418.80846810578214 M412.4407935238254,418.80846810578214 L411.9625912228026,418.5953062528645 M411.9625912228026,418.5953062528645 L411.59967592721307,418.1976409973062 M411.59967592721307,418.1976409973062 L411.3731407489339,417.6385816989584 M411.3731407489339,417.6385816989584 L411.29615277706654,416.9506173922912 M411.29615277706654,416.9506173922912 L411.37318644558235,416.17373143731953 M411.37318644558235,416.17373143731953 L411.5997664929289,415.3530746616506 M411.5997664929289,415.3530746616506 L411.9627246317654,414.53634177151855 M411.9627246317654,414.53634177151855 L412.4409659280274,413.7709981986128 M412.4409659280274,413.7709981986128 L413.0066963629593,413.10152793530574 M413.0066963629593,413.10152793530574 L413.6270367243171,412.56683673186126 M413.6270367243171,412.56683673186126 L414.2659332773346,412.1980001809036 M414.2659332773346,412.1980001809036 L414.8862544208759,412.01645335984955 M414.8862544208759,412.01645335984955 L415.4519493938198,412.03274491667645 M415.4519493938198,412.03274491667645 L415.9301425944069,412.2459285163026 M415.9301425944069,412.2459285163026 L416.2930436870433,412.6436093529374 M416.2930436870433,412.6436093529374 L416.519563066227,413.2026766863573 M416.519563066227,413.2026766863573 L416.59653796255907,413.89063923704015" stroke="black"  stroke-width="4"  fill="red"/>
<path d="M527.8056009898103,330.1130141373023 L527.7283990385138,330.8896693775172 M527.7283990385138,330.8896693775172 L527.501790737504,331.7100203257768 M527.501790737504,331.7100203257768 L527.1389461756958,332.5263930251661 M527.1389461756958,332.5263930251661 L526.6609684027801,333.29133494995466 M526.6609684027801,333.29133494995466 L526.095616080551,333.9604034489103 M526.095616080551,333.9604034489103 L525.4757597562923,334.4947066569645 M525.4757597562923,334.4947066569645 L524.8374101021159,334.86319923606806 M524.8374101021159,334.86319923606806 L524.2176655295134,335.0444647373972 M524.2176655295134,335.0444647373972 L523.6525548627565,335.0279612478026 M523.6525548627565,335.0279612478026 L523.1749042991578,334.81465564742115 M523.1749042991578,334.81465564742115 L522.8124872061364,334.41693446945374 M522.8124872061364,334.41693446945374 L522.5863597763139,333.85791492251434 M522.5863597763139,333.85791492251434 L522.5096654000179,333.1700837322261 M522.5096654000179,333.1700837322261 L522.5868673907721,332.3934130912187 M522.5868673907721,332.3934130912187 L522.8134747589907,331.57304474465525 M522.8134747589907,331.57304474465525 L523.1763176294337,330.7566566352193 M523.1763176294337,330.7566566352193 L523.6543157321571,329.991689558975 M523.6543157321571,329.991689558975 L524.2196752741331,329.3226136533351 M524.2196752741331,329.3226136533351 L524.8395545275189,328.7883025554694 M524.8395545275189,328.7883025554694 L525.4779151757898,328.4198163364404 M525.4779151757898,328.4198163364404 L526.097656288825,328.23856998804666 M526.097656288825,328.23856998804666 L526.6627722265307,328.25508811018267 M526.6627722265307,328.25508811018267 L527.1404051106808,328.4684203952506 M527.1404051106808,328.4684203952506 L527.5028160980023,328.8661524726687 M527.5028160980023,328.8661524726687 L527.7289280022317,329.42517989675036 M527.7289280022317,329.42517989675036 L527.8056009898103,330.1130141373023 M527.8056009898103,330.1130141373023 L527.1686900149004,328.52337987036566 M527.1686900149004,328.52337987036566 L526.5317905361633,326.93377429615083 M526.5317905361633,326.93377429615083 L526.393766355945,325.6956845071934 M526.393766355945,325.6956845071934 L525.9867690027756,324.68942788326154 M525.9867690027756,324.68942788326154 L525.3344369979559,323.97349151057324 M525.3344369979559,323.97349151057324 L524.4746913844463,323.5894810239534 M524.4746913844463,323.5894810239534 L523.4574836208933,323.55972069353896 M523.4574836208933,323.55972069353896 L522.341936756721,323.8859453470736 M522.341936756721,323.8859453470736 L521.1928796636003,324.54920122664805 M521.1928796636003,324.54920122664805 L520.0770974460718,325.51094231965396 M520.0770974460718,325.51094231965396 L519.0594354856187,326.7152781619523 M519.0594354856187,326.7152781619523 L518.1990482475414,328.09220531153335 M518.1990482475414,328.09220531153335 L517.5459305263689,329.56170811625174 M517.5459305263689,329.56170811625174 L517.1380547289125,331.03836920868184 M517.1380547289125,331.03836920868184 L516.9991063875034,332.43637732230525 M516.9991063875034,332.43637732230525 L517.1371817667637,333.6744653431581 M517.1371817667637,333.6744653431581 L517.5442294220654,334.680696446251 M517.5442294220654,334.680696446251 L518.196607390878,335.39658239233796 M518.196607390878,335.39658239233796 L519.0563840991681,335.7805314336647 M519.0563840991681,335.7805314336647 L520.0736009665259,335.81022924194997 M520.0736009665259,335.81022924194997 L521.1891328570352,335.4839576472829 M521.1891328570352,335.4839576472829 L522.338154329293,334.8206811610703 M522.338154329293,334.8206811610703 L523.4538884391577,333.8589505167044 M523.4538884391577,333.8589505167044 L524.4715008258652,332.65465378471 M524.4715008258652,332.65465378471 L525.3318483820537,331.2777831127875 M525.3318483820537,331.2777831127875 L525.9849454017608,329.80834534902016 M525.9849454017608,329.80834534902016 L526.3928242223274,328.3317406260352 M526.3928242223274,328.3317406260352 L526.5317905361633,326.93377429615083 M527.8056009898103,330.1130141373023 L544.7673981169589,339.89601083047387 M544.7673981169589,339.89601083047387 L544.6901609269728,340.6726913564124 M544.6901609269728,340.6726913564124 L544.4635194429845,341.4930759890995 M544.4635194429845,341.4930759890995 L544.100645682285,342.3094888141172 M544.100645682285,342.3094888141172 L543.622644391409,343.0744749728928 M543.622644391409,343.0744749728928 L543.0572755987926,343.74358924486876 M543.0572755987926,343.74358924486876 L542.4374108088339,344.27793710395997 M542.4374108088339,344.27793710395997 L541.7990611856264,344.64647061798627 M541.7990611856264,344.64647061798627 L541.1793251388615,344.82777095908426 M541.1793251388615,344.82777095908426 L540.6142309973354,344.81129418851475 M540.6142309973354,344.81129418851475 L540.136603998059,344.5980056344945 M540.136603998059,344.5980056344945 L539.7742161391145,344.2002908385042 M539.7742161391145,344.2002908385042 L539.5481219142359,343.64126663856973 M539.5481219142359,343.64126663856973 L539.471462784097,342.9534200305704 M539.471462784097,342.9534200305704 L539.5487000138346,342.1767241028134 M539.5487000138346,342.1767241028134 L539.7753405658434,341.35632207041755 M539.7753405658434,341.35632207041755 L540.1382126363212,340.5398938338915 M540.1382126363212,340.5398938338915 L540.6162342583302,339.77488252097544 M540.6162342583302,339.77488252097544 L541.1816102716991,339.105760841092 M541.1816102716991,339.105760841092 L541.8014979913512,338.57140509068813 M541.8014979913512,338.57140509068813 L542.4398586086518,338.2028779367376 M542.4398586086518,338.2028779367376 L543.0595911952798,338.021596750078 M543.0595911952798,338.021596750078 L543.6246906067477,338.03808815441374 M543.6246906067477,338.03808815441374 L544.10229992525,338.2514033958054 M544.10229992525,338.2514033958054 L544.4646816773516,338.64912909270726 M544.4646816773516,338.64912909270726 L544.6907603758277,339.20816117118704 M544.6907603758277,339.20816117118704 L544.7673981169589,339.89601083047387" stroke="black"  stroke-width="4"  fill="red"/>
<path d="M228.5726661235311,502.8447045949227 L228.49592689097034,503.6218106701147 M228.49592689097034,503.6218106701147 L228.26946005702567,504.4427561672856 M228.26946005702567,504.4427561672856 L227.9064274917826,505.2598325784492 M227.9064274917826,505.2598325784492 L227.42791128649685,506.02556488879316 M227.42791128649685,506.02556488879316 L226.8617489953789,506.69543703752004 M226.8617489953789,506.69543703752004 L226.24081825231653,507.2305335369478 M226.24081825231653,507.2305335369478 L225.60122405905986,507.5997445364539 M225.60122405905986,507.5997445364539 L224.98011333341668,507.7816255844135 M224.98011333341668,507.7816255844135 L224.41360241380187,507.7655943057985 M224.41360241380187,507.7655943057985 L223.9346069396352,507.5525854793649 M223.9346069396352,507.5525854793649 L223.57094654945223,507.15498679659567 M223.57094654945223,507.15498679659567 L223.34378922375132,506.59588552604873 M223.34378922375132,506.59588552604873 L223.2663382110289,505.90777314002975 M223.2663382110289,505.90777314002975 L223.3430531715435,505.1306656676226 M223.3430531715435,505.1306656676226 L223.5695190546839,504.30970274732977 M223.5695190546839,504.30970274732977 L223.9325742081769,503.49259687863633 M223.9325742081769,503.49259687863633 L224.41108649348183,502.72685339101616 M224.41108649348183,502.72685339101616 L224.97726412746877,502.0569691401242 M224.97726412746877,502.0569691401242 L225.598209767064,501.5218693982569 M225.598209767064,501.5218693982569 L226.23781499746406,501.15266475874836 M226.23781499746406,501.15266475874836 L226.8589303727563,500.9707982164388 M226.8589303727563,500.9707982164388 L227.42543848914985,500.98684882301353 M227.42543848914985,500.98684882301353 L227.9044405441842,501.1998703600217 M227.9044405441842,501.1998703600217 L228.26807051848763,501.59749398976004 M228.26807051848763,501.59749398976004 L228.4952122719227,502.1566031622436 M228.4952122719227,502.1566031622436 L228.5726661235311,502.8447045949227 M228.5726661235311,502.8447045949227 L227.9378337875777,501.25195099736277 M227.9378337875777,501.25195099736277 L227.3030129215144,499.6592261770209 M227.3030129215144,499.6592261770209 L227.1635896810058,498.4206517021227 M227.1635896810058,498.4206517021227 L226.75473055421006,497.4142525657169 M226.75473055421006,497.4142525657169 L226.10018985386716,496.69851975246667 M226.10018985386716,496.69851975246667 L225.23801700315275,496.3150470619114 M225.23801700315275,496.3150470619114 L224.21828876938588,496.2861366055725 M224.21828876938588,496.2861366055725 L223.10027470233877,496.6134738218583 M223.10027470233877,496.6134738218583 L221.94897087790093,497.2780265540998 M221.94897087790093,497.2780265540998 L220.8312610732088,498.24119184105314 M220.8312610732088,498.24119184105314 L219.81212652098628,499.44698270024816 M219.81212652098628,499.44698270024816 L218.9508072910286,500.82531111028794 M218.9508072910286,500.82531111028794 L218.29733660788597,502.2960890636505 M218.29733660788597,502.2960890636505 L217.889707418233,503.77382505985923 M217.889707418233,503.77382505985923 L217.75162279989314,505.1726269535067 M217.75162279989314,505.1726269535067 L217.8910731152658,506.4112136424808 M217.8910731152658,506.4112136424808 L218.29998269570035,507.41758717738816 M218.29998269570035,507.41758717738816 L218.95456947500395,508.1332694507562 M218.95456947500395,508.1332694507562 L219.81677347491376,508.51668057718143 M219.81677347491376,508.51668057718143 L220.83651079063694,508.5455284116443 M220.83651079063694,508.5455284116443 L221.9545097925066,508.2181441976965 M221.9545097925066,508.2181441976965 L223.10577785640447,507.55357085894883 M223.10577785640447,507.55357085894883 L224.22343939665885,506.5904160768608 M224.22343939665885,506.5904160768608 L225.24252423803608,505.38466442771823 M225.24252423803608,505.38466442771823 L226.10380369833396,504.00639261438783 M226.10380369833396,504.00639261438783 L226.75725366423083,502.53567981523753 M226.75725366423083,502.53567981523753 L227.16488593478505,501.0580002690499 M227.16488593478505,501.0580002690499 L227.3030129215144,499.6592261770209 M228.5726661235311,502.8447045949227 L245.5344617575047,512.6468990296387 M245.5344617575047,512.6468990296387 L245.4576872778729,513.4240304056121 M245.4576872778729,513.4240304056121 L245.2311872362731,514.2450096299658 M245.2311872362731,514.2450096299658 L244.86812543260186,515.0621262347256 M244.86812543260186,515.0621262347256 L244.38958565725522,515.827902870333 M244.38958565725522,515.827902870333 L243.82340683411442,516.4978208983065 M243.82340683411442,516.4978208983065 L243.2024675577625,517.0329621663402 M243.2024675577625,517.0329621663402 L242.56287332585936,517.4022142208021 M242.56287332585936,517.4022142208021 L241.94177105845714,517.5841302255803 M241.94177105845714,517.5841302255803 L241.37527660242466,517.5681257727326 M241.37527660242466,517.5681257727326 L240.89630464046184,517.3551340823743 M240.89630464046184,517.3551340823743 L240.53267344479647,516.9575418511001 M240.53267344479647,516.9575418511001 L240.3055492993396,516.3984359703022 M240.3055492993396,516.3984359703022 L240.2281335243701,515.7103081800576 M240.2281335243701,515.7103081800576 L240.30488373224617,514.9331754074012 M240.30488373224617,514.9331754074012 L240.5313828238532,514.1121787585182 M240.5313828238532,514.1121787585182 L240.89446721692087,513.2950326932041 M240.89446721692087,513.2950326932041 L241.37300307361528,512.5292448791871 M241.37300307361528,512.5292448791871 L241.93919724063514,511.85931474730046 M241.93919724063514,511.85931474730046 L242.56015141409137,511.3241702358396 M242.56015141409137,511.3241702358396 L243.1997566831399,510.95492454137457 M243.1997566831399,510.95492454137457 L243.8208635996233,510.7730230432324 M243.8208635996233,510.7730230432324 L244.38735525142667,510.7890468257866 M244.38735525142667,510.7890468257866 L244.86633379292908,511.0020512278528 M244.86633379292908,511.0020512278528 L245.229934571567,511.3996684091212 M245.229934571567,511.3996684091212 L245.45704314394348,511.9587821932644 M245.45704314394348,511.9587821932644 L245.5344617575047,512.6468990296387" stroke="black"  stroke-width="4"  fill="red"/>
<path d="M691.7485684010358,227.65254537193235 L691.6723296766168,226.96486810960602 M691.6723296766168,226.96486810960602 L691.4467913573139,226.40588960869133 M691.4467913573139,226.40588960869133 L691.0850599440994,226.0080955552923 M691.0850599440994,226.0080955552923 L690.6081887878727,225.7945849591519 M690.6081887878727,225.7945849591519 L690.0438563391724,225.77779185656846 M690.0438563391724,225.77779185656846 L689.4248825287204,225.95867815719123 M689.4248825287204,225.95867815719123 L688.7872602342629,226.32672181048866 M688.7872602342629,226.32672181048866 L688.16799237598,226.86056534789844 M688.16799237598,226.86056534789844 L687.6030897947562,227.5291712212384 M687.6030897947562,227.5291712212384 L687.1254070985401,228.2936703449679 M687.1254070985401,228.2936703449679 L686.7627040607942,229.10962883698332 M686.7627040607942,229.10962883698332 L686.5360295538649,229.92964430168212 M686.5360295538649,229.92964430168212 L686.4585573550503,230.70605930601678 M686.4585573550503,230.70605930601678 L686.5348416480742,231.39371955082512 M686.5348416480742,231.39371955082512 L686.7603954660485,231.95269018927974 M686.7603954660485,231.95269018927974 L687.1221087574766,232.3504873364892 M687.1221087574766,232.3504873364892 L687.5989895035177,232.56397593542715 M687.5989895035177,232.56397593542715 L688.1633247656534,232.58074975879236 M688.1633247656534,232.58074975879236 L688.7822939704186,232.39984898025364 M688.7822939704186,232.39984898025364 L689.4199052957906,232.03179896714255 M689.4199052957906,232.03179896714255 L690.0391583335968,231.49795864446935 M690.0391583335968,231.49795864446935 L690.604045638252,230.82936482429434 M690.604045638252,230.82936482429434 L691.0817161003381,230.06488616460786 M691.0817161003381,230.06488616460786 L691.4444450395602,229.24892908940168 M691.4444450395602,229.24892908940168 L691.6711204693556,228.42893100827737 M691.6711204693556,228.42893100827737 L691.7485684010358,227.65254537193235 M691.7485684010358,227.65254537193235 L694.5025668114861,228.01896146537365 M694.5025668114861,228.01896146537365 L697.2565766869102,228.38537908421557 M697.2565766869102,228.38537908421557 L697.117119667987,229.7828913732598 M697.117119667987,229.7828913732598 L696.7091042053294,231.25888053212805 M696.7091042053294,231.25888053212805 L696.0562249545208,232.72758136094527 M696.0562249545208,232.72758136094527 L695.1964055589269,234.10365465407367 M695.1964055589269,234.10365465407367 L694.1796328637233,235.30712152447632 M694.1796328637233,235.30712152447632 L693.0649850323355,236.26804737222986 M693.0649850323355,236.26804737222986 L691.917240909019,236.93058650449578 M691.917240909019,236.93058650449578 L690.8031350248777,237.2562126748948 M690.8031350248777,237.2562126748948 L689.787354860812,237.22603068632844 M689.787354860812,237.22603068632844 L688.9289581920787,236.84177753772687 M688.9289581920787,236.84177753772687 L688.2778229370388,236.12578550054982 M688.2778229370388,236.12578550054982 L687.8718397771443,235.1196344061363 M687.8718397771443,235.1196344061363 L687.7345570038665,233.88182620298278 M687.7345570038665,233.88182620298278 L687.8739880386329,232.48427681193414 M687.8739880386329,232.48427681193414 L688.2820005108213,231.0082313296911 M688.2820005108213,231.0082313296911 L688.9349327417342,229.53944688691433 M688.9349327417342,229.53944688691433 L689.7947917694114,228.1633171839563 M689.7947917694114,228.1633171839563 L690.8116139602339,226.95981126010406 M690.8116139602339,226.95981126010406 L691.9262775221696,225.99889363327088 M691.9262775221696,225.99889363327088 L693.0740571869167,225.33637510772758 M693.0740571869167,225.33637510772758 L694.188210280241,225.0107772085118 M694.188210280241,225.0107772085118 L695.2039813281272,225.04102166230086 M695.2039813281272,225.04102166230086 L696.0623469330508,225.42533618856893 M696.0623469330508,225.42533618856893 L696.7134040019203,226.14139722536962 M696.7134040019203,226.14139722536962 L697.1193369461505,227.14757379453957 M697.1193369461505,227.14757379453957 L697.2565766869102,228.38537908421557 M691.7485684010358,227.65254537193235 L674.789421036174,217.8820121680801 M674.789421036174,217.8820121680801 L674.713147072235,217.19435033436204 M674.713147072235,217.19435033436204 L674.4875755454882,216.63537651551036 M674.4875755454882,216.63537651551036 L674.1258148868433,216.23757612544387 M674.1258148868433,216.23757612544387 L673.6489201468335,216.02404854411438 M673.6489201468335,216.02404854411438 L673.0845711468869,216.00722879242517 M673.0845711468869,216.00722879242517 L672.4655887796011,216.18808033017743 M672.4655887796011,216.18808033017743 L671.8279664200988,216.5560831283076 M671.8279664200988,216.5560831283076 L671.2087069923352,217.0898820891274 M671.2087069923352,217.0898820891274 L670.6438208471641,217.75844225646696 M670.6438208471641,217.75844225646696 L670.1661616373569,218.52289720262507 M670.1661616373569,218.52289720262507 L669.8034877711432,219.33881561306652 M669.8034877711432,219.33881561306652 L669.5768464255293,220.1587974197287 M669.5768464255293,220.1587974197287 L669.4994094505569,220.93518714577368 M669.4994094505569,220.93518714577368 L669.5757289828152,221.62283196454584 M669.5757289828152,221.62283196454584 L669.8013160074267,222.18179792233676 M669.8013160074267,222.18179792233676 L670.1630585431426,222.57960140611962 M670.1630585431426,222.57960140611962 L670.6399628716426,222.79310699240972 M670.6399628716426,222.79310699240972 L671.2043146840192,222.809907466621 M671.2043146840192,222.809907466621 L671.8232924450481,222.6290414519371 M671.8232924450481,222.6290414519371 L672.4609038354615,222.26103229399575 M672.4609038354615,222.26103229399575 L673.0801484433123,221.72723654693277 M673.0801484433123,221.72723654693277 L673.6450193129172,221.05868843102053 M673.6450193129172,221.05868843102053 L674.1226662899171,220.29425394674325 M674.1226662899171,220.29425394674325 L674.4853660587523,219.47833695320332 M674.4853660587523,219.47833695320332 L674.7120083280438,218.6583725287124 M674.7120083280438,218.6583725287124 L674.789421036174,217.8820121680801" stroke="black"  stroke-width="4"  fill="red"/>
<path d="M392.85054524900363,400.18323966181293 L392.7735210149683,399.4952986883394 M392.7735210149683,399.4952986883394 L392.54695516494695,398.93623784618205 M392.54695516494695,398.93623784618205 L392.18401316911275,398.53854803743434 M392.18401316911275,398.53854803743434 L391.70578701010396,398.3253405236228 M391.70578701010396,398.3253405236228 L391.1400689393423,398.30901149997 M391.1400689393423,398.30901149997 L390.5197359009146,398.49050947884706 M390.5197359009146,398.49050947884706 L389.88083934734465,398.85928865062147 M389.88083934734465,398.85928865062147 L389.26051087980045,399.3939172725742 M389.26051087980045,399.3939172725742 L388.69480354170804,400.06332338928314 M388.69480354170804,400.06332338928314 L388.2165952030406,400.82860497854466 M388.2165952030406,400.82860497854466 L387.8536779667743,401.6452816505911 M387.8536779667743,401.6452816505911 L387.62714438987354,402.4658912411288 M387.62714438987354,402.4658912411288 L387.55016005892793,403.2427417863299 M387.55016005892793,403.2427417863299 L387.62719736808856,403.9306845164749 M387.62719736808856,403.9306845164749 L387.85377901606927,404.48973732555044 M387.85377901606927,404.48973732555044 L388.2167352132546,404.8874115559962 M388.2167352132546,404.8874115559962 L388.69497047084093,405.1005973260906 M388.69497047084093,405.1005973260906 L389.2606913483104,405.1169070400008 M389.2606913483104,405.1169070400008 L389.8810202585329,404.9353942740813 M389.8810202585329,404.9353942740813 L390.51990579953093,404.5666087422315 M390.51990579953093,404.5666087422315 L391.14021889299175,404.03198364419137 M391.14021889299175,404.03198364419137 L391.70591091267596,403.36258961136025 M391.70591091267596,403.36258961136025 L392.1841074979412,402.5973282325786 M392.1841074979412,402.5973282325786 L392.5470183430632,401.7806716494521 M392.5470183430632,401.7806716494521 L392.7735526080462,400.960079613157 M392.7735526080462,400.960079613157 L392.85054524900363,400.18323966181293 M392.85054524900363,400.18323966181293 L395.6066200894845,400.55037435668646 M395.6066200894845,400.55037435668646 L398.3627065411961,400.9175105085067 M398.3627065411961,400.9175105085067 L398.224101326776,402.3158219109086 M398.224101326776,402.3158219109086 L397.8163266203492,403.79288787508 M397.8163266203492,403.79288787508 L397.16308163926846,405.2628699197954 M397.16308163926846,405.2628699197954 L396.30232818883223,406.64034462973467 M396.30232818883223,406.64034462973467 L395.2840874919809,407.84526316971585 M395.2840874919809,407.84526316971585 L394.16753096366847,408.8076019925755 M394.16753096366847,408.8076019925755 L393.01754501911455,409.47143522364547 M393.01754501911455,409.47143522364547 L391.90096018289483,409.7981811970923 M391.90096018289483,409.7981811970923 L390.88266611565047,409.76884608122236 M390.88266611565047,409.76884608122236 L390.02184360303033,409.38513097798983 M390.02184360303033,409.38513097798983 L389.3685229406822,408.66933030328505 M389.3685229406822,408.66933030328505 L388.9606765265875,407.6630389066803 M388.9606765265875,407.6630389066803 L388.8220126608041,406.4247370355955 M388.8220126608041,406.4247370355955 L388.96059113796883,405.026388865956 M388.96059113796883,405.026388865956 L389.36836304940016,403.5492663518933 M389.36836304940016,403.5492663518933 L390.0216289912398,402.0792190718834 M390.0216289912398,402.0792190718834 L390.88242190882556,400.7016879791397 M390.88242190882556,400.7016879791397 L391.9007124907067,399.496730140289 M391.9007124907067,399.496730140289 L393.0173166881594,398.5343811364846 M393.0173166881594,398.5343811364846 L394.16733831343873,397.8705685120549 M394.16733831343873,397.8705685120549 L395.2839386679278,397.5438692120903 M395.2839386679278,397.5438692120903 L396.3022233880213,397.57326703861486 M396.3022233880213,397.57326703861486 L397.16301503519367,397.9570434923809 M397.16301503519367,397.9570434923809 L397.81628943167755,398.6728947879575 M397.81628943167755,398.6728947879575 L398.22408522597044,399.6792118858794 M398.22408522597044,399.6792118858794 L398.3627065411961,400.9175105085067 M392.85054524900363,400.18323966181293 L375.8913833657347,390.3935454090127 M375.8913833657347,390.3935454090127 L375.8143239004505,389.70561984881806 M375.8143239004505,389.70561984881806 L375.58772486750325,389.1465636461821 M375.58772486750325,389.1465636461821 L375.22475366557876,388.74886743343734 M375.22475366557876,388.74886743343734 L374.7465039746605,388.53564284419923 M374.7465039746605,388.53564284419923 L374.180769414048,388.51928706578514 M374.180769414048,388.51928706578514 L373.5604278861341,388.70075016535117 M373.5604278861341,388.70075016535117 L372.9215313369028,389.06948836019177 M372.9215313369028,389.06948836019177 L372.30121136726996,389.60407228903813 M372.30121136726996,389.60407228903813 L371.73552052671164,390.27343259400715 M371.73552052671164,390.27343259400715 L371.2573357264487,391.03866991537353 M371.2573357264487,391.03866991537353 L370.8944477012018,391.85530643630216 M370.8944477012018,391.85530643630216 L370.66794731030376,392.6758823260827 M370.66794731030376,392.6758823260827 L370.5909982116526,393.4527075795799 M370.5909982116526,393.4527075795799 L370.66807075176905,394.1406348969366 M370.66807075176905,394.1406348969366 L370.8946855818641,394.69968306791185 M370.8946855818641,394.69968306791185 L371.2576709839957,395.09736370433603 M371.2576709839957,395.09736370433603 L371.7359297721645,395.3105665519934 M371.7359297721645,395.3105665519934 L372.30166713847797,395.3269030224093 M372.30166713847797,395.3269030224093 L372.9220045376182,395.1454251368186 M372.9220045376182,395.1454251368186 L373.56089007427784,394.77668058190307 M373.56089007427784,394.77668058190307 L374.18119467039605,394.24210017595243 M374.18119467039605,394.24210017595243 L374.74687019355326,393.57275195311723 M374.74687019355326,393.57275195311723 L375.2250432417411,392.80753484009443 M375.2250432417411,392.80753484009443 L375.5879248769877,391.9909184061041 M375.5879248769877,391.9909184061041 L375.81442595677925,391.17036006914424 M375.81442595677925,391.17036006914424 L375.8913833657347,390.3935454090127" stroke="black"  stroke-width="4"  fill="red"/>
<path d="M521.0214098736883,326.20011983976144 L520.9447227898556,325.5122917669323 M520.9447227898556,325.5122917669323 L520.7185976057817,324.95326620528596 M520.7185976057817,324.95326620528596 L520.3561749268172,324.5555315767453 M520.3561749268172,324.5555315767453 L519.878532618699,324.3421924756356 M519.878532618699,324.3421924756356 L519.3134100725022,324.3256636680703 M519.3134100725022,324.3256636680703 L518.6936655505051,324.50689608301207 M518.6936655505051,324.50689608301207 L518.0553048909508,324.8753659299826 M518.0553048909508,324.8753659299826 L517.4354290246156,325.4096591686881 M517.4354290246156,325.4096591686881 L516.8700760711486,326.0787167663225 M516.8700760711486,326.0787167663225 L516.3920873755017,326.84366614932884 M516.3920873755017,326.84366614932884 L516.0292561838828,327.66003820901506 M516.0292561838828,327.66003820901506 L515.8026620875075,328.4803930819241 M515.8026620875075,328.4803930819241 L515.7254741902875,329.2570536084633 M515.7254741902875,329.2570536084633 L515.802182662721,329.94487863143803 M515.802182662721,329.94487863143803 L516.0283233720647,330.50389631650336 M516.0283233720647,330.50389631650336 L516.3907521562724,330.9016200461776 M516.3907521562724,330.9016200461776 L516.8684121433089,331.1149324636745 M516.8684121433089,331.1149324636745 L517.4335294181537,331.1314466391884 M517.4335294181537,331.1314466391884 L518.0532773994908,330.95019507191245 M518.0532773994908,330.95019507191245 L518.6916270649499,330.58171886486787 M518.6916270649499,330.58171886486787 L519.3114800023848,330.0474335153736 M519.3114800023848,330.0474335153736 L519.8768257365068,329.37838332393414 M519.8768257365068,329.37838332393414 L520.3547941028758,328.6134590913097 M520.3547941028758,328.6134590913097 L520.7176269863176,327.7971024410856 M520.7176269863176,327.7971024410856 L520.9442220158087,326.97676496591856 M520.9442220158087,326.97676496591856 L521.0214098736883,326.20011983976144 M521.0214098736883,326.20011983976144 L523.7765944667592,326.56694630397413 M523.7765944667592,326.56694630397413 L526.5317905361633,326.93377429615083 M526.5317905361633,326.93377429615083 L526.3928242223274,328.3317406260352 M526.3928242223274,328.3317406260352 L525.9849454017608,329.80834534902016 M525.9849454017608,329.80834534902016 L525.3318483820537,331.2777831127875 M525.3318483820537,331.2777831127875 L524.4715008258652,332.65465378471 M524.4715008258652,332.65465378471 L523.4538884391577,333.8589505167044 M523.4538884391577,333.8589505167044 L522.338154329293,334.8206811610703 M522.338154329293,334.8206811610703 L521.1891328570352,335.4839576472829 M521.1891328570352,335.4839576472829 L520.0736009665259,335.81022924194997 M520.0736009665259,335.81022924194997 L519.0563840991681,335.7805314336647 M519.0563840991681,335.7805314336647 L518.196607390878,335.39658239233796 M518.196607390878,335.39658239233796 L517.5442294220654,334.680696446251 M517.5442294220654,334.680696446251 L517.1371817667637,333.6744653431581 M517.1371817667637,333.6744653431581 L516.9991063875034,332.43637732230525 M516.9991063875034,332.43637732230525 L517.1380547289125,331.03836920868184 M517.1380547289125,331.03836920868184 L517.5459305263689,329.56170811625174 M517.5459305263689,329.56170811625174 L518.1990482475414,328.09220531153335 M518.1990482475414,328.09220531153335 L519.0594354856187,326.7152781619523 M519.0594354856187,326.7152781619523 L520.0770974460718,325.51094231965396 M520.0770974460718,325.51094231965396 L521.1928796636003,324.54920122664805 M521.1928796636003,324.54920122664805 L522.341936756721,323.8859453470736 M522.341936756721,323.8859453470736 L523.4574836208933,323.55972069353896 M523.4574836208933,323.55972069353896 L524.4746913844463,323.5894810239534 M524.4746913844463,323.5894810239534 L525.3344369979559,323.97349151057324 M525.3344369979559,323.97349151057324 L525.9867690027756,324.68942788326154 M525.9867690027756,324.68942788326154 L526.393766355945,325.6956845071934 M526.393766355945,325.6956845071934 L526.5317905361633,326.93377429615083 M521.0214098736883,326.20011983976144 L504.0622502335254,316.41864436077884 M504.0622502335254,316.41864436077884 L503.98552791486816,315.7308317078296 M503.98552791486816,315.7308317078296 L503.7593695373194,315.1718108039614 M503.7593695373194,315.1718108039614 L503.39691763535586,314.77406980032316 M503.39691763535586,314.77406980032316 L502.91925177304273,314.5607136626796 M502.91925177304273,314.5607136626796 L502.35411271062725,314.54415814576515 M502.35411271062725,314.54415814576515 L501.7343596702268,314.7253557317098 M501.7343596702268,314.7253557317098 L501.0959989852241,315.0937846533064 M501.0959989852241,315.0937846533064 L500.47613158787556,315.6280332487455 M500.47613158787556,315.6280332487455 L499.9107951055615,316.2970450805928 M499.9107951055615,316.2970450805928 L499.4328299260141,317.061950234078 M499.4328299260141,317.061950234078 L499.0700279284829,317.8782821721026 M499.0700279284829,317.8782821721026 L498.8434670075358,318.6986033625703 M498.8434670075358,318.6986033625703 L498.7663143390073,319.4752386035164 M498.7663143390073,319.4752386035164 L498.84305804597466,320.16304820763463 M498.84305804597466,320.16304820763463 L499.0692319479835,320.7220612363243 M499.0692319479835,320.7220612363243 L499.43168995404767,321.11979134255665 M499.43168995404767,321.11979134255665 L499.90937349395375,321.3331207992718 M499.90937349395375,321.3331207992718 L500.47450728401077,321.3496616853595 M500.47450728401077,321.3496616853595 L501.0942637831826,321.1684449485836 M501.0942637831826,321.1684449485836 L501.7326134740886,320.80000966691426 M501.7326134740886,320.80000966691426 L502.35245794310316,320.26576895918595 M502.35245794310316,320.26576895918595 L502.91778720707765,319.59676453231026 M502.91778720707765,319.59676453231026 L503.39573205867214,318.83188452652314 M503.39573205867214,318.83188452652314 L503.75853574916954,318.0155679964991 M503.75853574916954,318.0155679964991 L503.985097604044,317.19526420236883 M503.985097604044,317.19526420236883 L504.0622502335254,316.41864436077884" stroke="black"  stroke-width="4"  fill="red"/>
<path d="M221.78847612195693,498.9241320970269 L221.71100817745807,498.23603682605744 M221.71100817745807,498.23603682605744 L221.4838531540591,497.6769294989183 M221.4838531540591,497.6769294989183 L221.12021150393687,497.2793032908817 M221.12021150393687,497.2793032908817 L220.641200045783,497.0662749013324 M220.641200045783,497.0662749013324 L220.07468534555915,497.05021356684784 M220.07468534555915,497.05021356684784 L219.4535665883451,497.2320661286864 M219.4535665883451,497.2320661286864 L218.81396137450903,497.6012543481299 M218.81396137450903,497.6012543481299 L218.1930191490015,498.1363361840216 M218.1930191490015,498.1363361840216 L217.62684812817804,498.8062020842135 M217.62684812817804,498.8062020842135 L217.14834527078915,499.57192784271 M217.14834527078915,499.57192784271 L216.78530181193358,500.3890176338442 M216.78530181193358,500.3890176338442 L216.55884921050372,501.2099670633806 M216.55884921050372,501.2099670633806 L216.4821483468715,501.98706441591844 M216.4821483468715,501.98706441591844 L216.55961345236653,502.67517064001566 M216.55961345236653,502.67517064001566 L216.78678404770582,503.2342700657817 M216.78678404770582,503.2342700657817 L217.15045611324837,503.63187132805905 M217.15045611324837,503.63187132805905 L217.62946099000334,503.84488700748693 M217.62946099000334,503.84488700748693 L218.1959784930454,503.8609290147106 M218.1959784930454,503.8609290147106 L218.81709260038332,503.67906194761633 M218.81709260038332,503.67906194761633 L219.45668677707687,503.3098673681748 M219.45668677707687,503.3098673681748 L220.07761410628012,502.77478877432776 M220.07761410628012,502.77478877432776 L220.64376978463858,502.1049349756018 M220.64376978463858,502.1049349756018 L221.12227656253967,501.33922039392826 M221.12227656253967,501.33922039392826 L221.48529743360385,500.52216005911424 M221.48529743360385,500.52216005911424 L221.71175098616254,499.7012280521369 M221.71175098616254,499.7012280521369 L221.78847612195693,498.9241320970269 M221.78847612195693,498.9241320970269 L224.5457387736098,499.29167837079217 M224.5457387736098,499.29167837079217 L227.3030129215144,499.6592261770209 M227.3030129215144,499.6592261770209 L227.16488593478505,501.0580002690499 M227.16488593478505,501.0580002690499 L226.75725366423083,502.53567981523753 M226.75725366423083,502.53567981523753 L226.10380369833396,504.00639261438783 M226.10380369833396,504.00639261438783 L225.24252423803608,505.38466442771823 M225.24252423803608,505.38466442771823 L224.22343939665885,506.5904160768608 M224.22343939665885,506.5904160768608 L223.10577785640447,507.55357085894883 M223.10577785640447,507.55357085894883 L221.9545097925066,508.2181441976965 M221.9545097925066,508.2181441976965 L220.83651079063694,508.5455284116443 M220.83651079063694,508.5455284116443 L219.81677347491376,508.51668057718143 M219.81677347491376,508.51668057718143 L218.95456947500395,508.1332694507562 M218.95456947500395,508.1332694507562 L218.29998269570035,507.41758717738816 M218.29998269570035,507.41758717738816 L217.8910731152658,506.4112136424808 M217.8910731152658,506.4112136424808 L217.75162279989314,505.1726269535067 M217.75162279989314,505.1726269535067 L217.889707418233,503.77382505985923 M217.889707418233,503.77382505985923 L218.29733660788597,502.2960890636505 M218.29733660788597,502.2960890636505 L218.9508072910286,500.82531111028794 M218.9508072910286,500.82531111028794 L219.81212652098628,499.44698270024816 M219.81212652098628,499.44698270024816 L220.8312610732088,498.24119184105314 M220.8312610732088,498.24119184105314 L221.94897087790093,497.2780265540998 M221.94897087790093,497.2780265540998 L223.10027470233877,496.6134738218583 M223.10027470233877,496.6134738218583 L224.21828876938588,496.2861366055725 M224.21828876938588,496.2861366055725 L225.23801700315275,496.3150470619114 M225.23801700315275,496.3150470619114 L226.10018985386716,496.69851975246667 M226.10018985386716,496.69851975246667 L226.75473055421006,497.4142525657169 M226.75473055421006,497.4142525657169 L227.1635896810058,498.4206517021227 M227.1635896810058,498.4206517021227 L227.3030129215144,499.6592261770209 M221.78847612195693,498.9241320970269 L204.82932056101333,489.12346335627166 M204.82932056101333,489.12346335627166 L204.75181739010603,488.43538349015625 M204.75181739010603,488.43538349015625 L204.5246291979423,487.8762807780788 M204.5246291979423,487.8762807780788 L204.16095836438868,487.47864812702 M204.16095836438868,487.47864812702 L203.68192340416664,487.2656026097055 M203.68192340416664,487.2656026097055 L203.11539224937945,487.24951445968924 M203.11539224937945,487.24951445968924 L202.49426504136375,487.43133207500244 M202.49426504136375,487.43133207500244 L201.8546598716984,487.80047924907444 M201.8546598716984,487.80047924907444 L201.23372618276827,488.3355163246784 M201.23372618276827,488.3355163246784 L200.66757169473024,489.0053363523612 M200.66757169473024,489.0053363523612 L200.18909240553384,489.77101779163314 M200.18909240553384,489.77101779163314 L199.82607818029268,490.588067391589 M199.82607818029268,490.588067391589 L199.59965877895178,491.4089830959307 M199.59965877895178,491.4089830959307 L199.52299315237312,492.1860551493708 M199.52299315237312,492.1860551493708 L199.60049348398206,492.8741459680835 M199.60049348398206,492.8741459680835 L199.82769724727166,493.43324078019594 M199.82769724727166,493.43324078019594 L200.19139849509767,493.83084848852 M200.19139849509767,493.83084848852 L200.67042687259325,494.04388129684605 M200.67042687259325,494.04388129684605 L201.23696082919128,494.0599501213481 M201.23696082919128,494.0599501213481 L201.8580833867632,493.878118001765 M201.8580833867632,493.878118001765 L202.49767751928832,493.50896446769434 M202.49767751928832,493.50896446769434 L203.11859631248583,492.9739306331478 M203.11859631248583,492.9739306331478 L203.68473545906886,492.30412270518354 M203.68473545906886,492.30412270518354 L204.16321867010558,491.5384524416013 M204.16321867010558,491.5384524416013 L204.52621030870168,490.72143229494185 M204.52621030870168,490.72143229494185 L204.75263066198238,489.900534011752 M204.75263066198238,489.900534011752 L204.82932056101333,489.12346335627166" stroke="black"  stroke-width="4"  fill="red"/></svg>