<svg viewBox="0 0 800 800" xmlns="http://www.w3.org/2000/svg"><path d="M716.8093890047156,266.75811718144826 L716.8723379000188,128.91463912488848 M716.8093890047156,266.75811718144826 L49.842430667268786,651.8102783314285 M716.8723379000188,128.91463912488848 L49.772700778097146,513.890167763378 M49.842430667268786,651.8102783314285 L49.772700778097146,513.890167763378 M630.085354304562,247.91879822353235 L629.9345403556835,246.5662416793038 M629.9345403556835,246.5662416793038 L629.4898698351474,245.46695864727056 M629.4898698351474,245.46695864727056 L628.7771834730288,244.6848352417246 M628.7771834730288,244.6848352417246 L627.8379298544737,244.26530538526072 M627.8379298544737,244.26530538526072 L626.7266567514564,244.2327826268968 M626.7266567514564,244.2327826268968 L625.5079775884708,244.58913806574265 M625.5079775884708,244.58913806574265 L624.252695032284,245.31367888112405 M624.252695032284,245.31367888112405 L623.033780834121,246.36428839525126 M623.033780834121,246.36428839525126 L621.9220530398363,247.6799205455697 M621.9220530398363,247.6799205455697 L620.9821386499939,249.18410947746722 M620.9821386499939,249.18410947746722 L620.2686742632574,250.78942074596688 M620.2686742632574,250.78942074596688 L619.8231103885083,252.40256876325273 M619.8231103885083,252.40256876325273 L619.6713421265451,253.92980103518198 M619.6713421265451,253.92980103518198 L619.8221981339501,255.2823515828401 M619.8221981339501,255.2823515828401 L620.2668991830014,256.3816191271495 M620.2668991830014,256.3816191271495 L620.9795975498251,257.1637211018925 M620.9795975498251,257.1637211018925 L621.9188859317446,257.58319848881627 M621.9188859317446,257.58319848881627 L623.0301645590977,257.6156833029479 M623.0301645590977,257.6156833029479 L624.2488346339288,257.25929937562967 M624.2488346339288,257.25929937562967 L625.5040955713434,256.5347460535873 M625.5040955713434,256.5347460535873 L626.7229805730051,255.48414287990275 M626.7229805730051,255.48414287990275 L627.834678281009,254.16853446450313 M627.834678281009,254.16853446450313 L628.7745526958238,252.6643949871502 M628.7745526958238,252.6643949871502 L629.4880204099941,251.05911401923842 M629.4880204099941,251.05911401923842 L629.9335861199719,249.44600021240322 M629.9335861199719,249.44600021240322 L630.085354304562,247.91879822353235 M293.98866753579557,441.91493483434186 L293.83697005376365,440.56208190866795 M293.83697005376365,440.56208190866795 L293.3911432213524,439.4627067989787 M293.3911432213524,439.4627067989787 L292.67709496520405,438.6807009724016 M292.67709496520405,438.6807009724016 L291.7363142034665,438.26151392136524 M291.7363142034665,438.26151392136524 L290.6234687753246,438.22952120413026 M290.6234687753246,438.22952120413026 L289.4032555618999,438.58656768863597 M289.4032555618999,438.58656768863597 L288.1465663606421,439.31192041027845 M288.1465663606421,439.31192041027845 L286.92644674128877,440.36342008610706 M286.92644674128877,440.36342008610706 L285.8138081827956,441.67995542697054 M285.8138081827956,441.67995542697054 L284.87331519267224,443.18501699226664 M284.87331519267224,443.18501699226664 L284.15962255958755,444.79112852613054 M284.15962255958755,444.79112852613054 L283.7142174441974,446.40494443267477 M283.7142174441974,446.40494443267477 L283.5629857203857,447.93267339989507 M283.5629857203857,447.93267339989507 L283.7147014692494,449.28553408210934 M283.7147014692494,449.28553408210934 L284.16055888251276,450.3848936762386 M284.16055888251276,450.3848936762386 L284.87464302782087,451.166864269612 M284.87464302782087,451.166864269612 L285.8154426783989,451.58600798019796 M285.8154426783989,451.58600798019796 L286.9282856691402,451.6179673098701 M286.9282856691402,451.6179673098701 L288.1484977168984,451.26088772612917 M288.1484977168984,451.26088772612917 L289.4051652509039,450.5355224978112 M289.4051652509039,450.5355224978112 L290.6252476652851,449.48403377308756 M290.6252476652851,449.48403377308756 L291.7378640442832,448.1675176105314 M291.7378640442832,448.1675176105314 L292.6783329222155,446.6624963706864 M292.6783329222155,446.6624963706864 L293.3920050327257,445.05642893985856 M293.3920050327257,445.05642893985856 L293.83741200355246,443.4426472716054 M293.83741200355246,443.4426472716054 L293.98866753579557,441.91493483434186 M750.1577163996232,285.99041376149967 L750.2272992219029,148.14310408413039 M750.1577163996232,285.99041376149967 L716.8093890047156,266.75811718144826 M750.2272992219029,148.14310408413039 L716.8723379000188,128.91463912488848 M49.842430667268786,651.8102783314285 L83.19075803936096,671.0853608751115 M83.19075803936096,671.0853608751115 L750.1577163996232,285.99041376149967 M83.19075803936096,671.0853608751115 L83.12766207714765,533.1614186811819 M49.772700778097146,513.890167763378 L83.12766207714765,533.1614186811819 M640.0904598336418,253.68935685934662 L639.9396666725787,252.33679121859907 M639.9396666725787,252.33679121859907 L639.4950157357445,251.23750543918743 M639.4950157357445,251.23750543918743 L638.7823466150563,250.45538579511876 M638.7823466150563,250.45538579511876 L637.8431068936544,250.0358659898294 M637.8431068936544,250.0358659898294 L636.7318435356914,250.00335898907244 M636.7318435356914,250.00335898907244 L635.5131693993277,250.359734975642 M635.5131693993277,250.359734975642 L634.2578868591535,251.0842999352145 M634.2578868591535,251.0842999352145 L633.0389676654628,252.13493578649184 M633.0389676654628,252.13493578649184 L631.9272301544806,253.45059493668737 M631.9272301544806,253.45059493668737 L630.9873018914554,254.95480996171867 M630.9873018914554,254.95480996171867 L630.2738202814803,256.5601448998067 M630.2738202814803,256.5601448998067 L629.8282368343847,258.1733127877601 M629.8282368343847,258.1733127877601 L629.6764477884653,259.7005599765502 M629.6764477884653,259.7005599765502 L629.8272830082265,261.05311962012377 M629.8272830082265,261.05311962012377 L630.2719644740534,262.1523899109842 M630.2719644740534,262.1523899109842 L630.9846456001208,262.93448812338806 M630.9846456001208,262.93448812338806 L631.9239200856688,263.3539554575537 M631.9239200856688,263.3539554575537 L633.0351889685613,263.3864245130502 M633.0351889685613,263.3864245130502 L634.2538540171063,263.0300200374272 M634.2538540171063,263.0300200374272 L635.5091149385091,262.30544257119317 M635.5091149385091,262.30544257119317 L636.7280049353642,261.2548130609382 M636.7280049353642,261.2548130609382 L637.8397123594729,259.9391776466887 M637.8397123594729,259.9391776466887 L638.7796006466887,258.43501207778525 M638.7796006466887,258.43501207778525 L639.4930855834231,256.8297074411473 M639.4930855834231,256.8297074411473 L639.9386708652688,255.21657376447328 M639.9386708652688,255.21657376447328 L640.0904598336418,253.68935685934662 M640.0904598336418,253.68935685934662 L630.085354304562,247.91879822353235 M303.9937743127026,447.691959787104 L303.8420976156689,446.3390977700956 M303.8420976156689,446.3390977700956 L303.39629035865585,445.2397199274089 M303.39629035865585,445.2397199274089 L302.6822593306302,444.4577178850514 M302.6822593306302,444.4577178850514 L301.7414924485077,444.0385409157176 M301.7414924485077,444.0385409157176 L300.62865674467014,444.00656399202745 M300.62865674467014,444.00656399202745 L299.408448535112,444.36363106366827 M299.408448535112,444.36363106366827 L298.1517593264281,445.0890079700966 M298.1517593264281,445.0890079700966 L296.9316346887876,446.1405340226472 M296.9316346887876,446.1405340226472 L295.8189863928392,447.45709639918726 M295.8189863928392,447.45709639918726 L294.87847951198404,448.96218408785995 M294.87847951198404,448.96218408785995 L294.16476964233993,450.5683193145378 M294.16476964233993,450.5683193145378 L293.7193449462853,452.182155106158 M293.7193449462853,452.182155106158 L293.5680924356857,453.70989899499307 M293.5680924356857,453.70989899499307 L293.71978739972417,455.0627687683956 M293.71978739972417,455.0627687683956 L294.1656252380685,456.1621310946929 M294.1656252380685,456.1621310946929 L294.87969215592926,456.9440979025241 M294.87969215592926,456.9440979025241 L295.82047792767537,457.3632315301275 M295.82047792767537,457.3632315301275 L296.93331119470656,457.3951750653784 M296.93331119470656,457.3951750653784 L298.15351823893343,457.0380748937681 M298.15351823893343,457.0380748937681 L299.4101857803646,456.31268548066413 M299.4101857803646,456.31268548066413 L300.63027321269703,455.26117037995283 M300.63027321269703,455.26117037995283 L301.7428993285558,453.9446271825964 M301.7428993285558,453.9446271825964 L302.6833820964368,452.43957982065467 M302.6833820964368,452.43957982065467 L303.39707144283125,450.83348869833554 M303.39707144283125,450.83348869833554 L303.84249799384384,449.21968714583585 M303.84249799384384,449.21968714583585 L303.9937743127026,447.691959787104 M303.9937743127026,447.691959787104 L293.98866753579557,441.91493483434186 M83.12766207714765,533.1614186811819 L750.2272992219029,148.14310408413039 M327.34032110690305,461.17243394878193 L327.1889962808767,462.700196124841 M327.1889962808767,462.700196124841 L326.7435240386481,464.3140440755847 M326.7435240386481,464.3140440755847 L326.02979447226267,465.92019048072325 M326.02979447226267,465.92019048072325 L325.0892792929319,467.42529879774565 M325.0892792929319,467.42529879774565 L323.97663045761135,468.741905080469 M323.97663045761135,468.741905080469 L322.75653131806195,469.7934817297198 M322.75653131806195,469.7934817297198 L321.4998637620187,470.5189275786958 M321.4998637620187,470.5189275786958 L320.2796683966337,470.876075793236 M320.2796683966337,470.876075793236 L319.1668578231874,470.84416911580036 M319.1668578231874,470.84416911580036 L318.226104441016,470.4250590186775 M318.226104441016,470.4250590186775 L317.5120777265442,469.6431010464503 M317.5120777265442,469.6431010464503 L317.06628556905207,468.5437323467624 M317.06628556905207,468.5437323467624 L316.91463910865764,467.1908413611535 M316.91463910865764,467.1908413611535 L317.0659401268273,465.66306265464993 M317.0659401268273,465.66306265464993 L317.5114105152149,464.04918046285013 M317.5114105152149,464.04918046285013 L318.2251606064254,462.4429899502665 M318.2251606064254,462.4429899502665 L319.16569990055797,460.93784130352617 M319.16569990055797,460.93784130352617 L320.27837091735546,459.62121583957446 M320.27837091735546,459.62121583957446 L321.4985072629967,458.5696282367709 M321.4985072629967,458.5696282367709 L322.7551964862935,457.84419489447055 M322.7551964862935,457.84419489447055 L323.97539301622714,457.4870797816136 M323.97539301622714,457.4870797816136 L325.0882060250936,457.51901984953344 M325.0882060250936,457.51901984953344 L326.02894051581393,457.9381732913735 M326.02894051581393,457.9381732913735 L326.7429313388746,458.7201665012132 M326.7429313388746,458.7201665012132 L327.18869291391746,459.81955071922596 M327.18869291391746,459.81955071922596 L327.34032110690305,461.17243394878193 M663.4370029897925,267.1547416905778 L663.2851655208659,268.68199340086994 M663.2851655208659,268.68199340086994 L662.8395345672172,270.29517344216913 M662.8395345672172,270.29517344216913 L662.1260094415759,271.9005333085041 M662.1260094415759,271.9005333085041 L661.1860887838578,273.4047597612073 M661.1860887838578,273.4047597612073 L660.0743586887199,274.7204581769314 M660.0743586887199,274.7204581769314 L658.8554570377505,275.7711491437428 M658.8554570377505,275.7711491437428 L657.600196156423,276.4957829511184 M657.600196156423,276.4957829511184 L656.3815428398136,276.8522353773428 M656.3815428398136,276.8522353773428 L655.270296698921,276.81980309614994 M655.270296698921,276.81980309614994 L654.3310546438698,276.4003592219316 M654.3310546438698,276.4003592219316 L653.6184137522428,275.6182697909833 M653.6184137522428,275.6182697909833 L653.1737779866428,274.51899309316536 M653.1737779866428,274.51899309316536 L653.0229912770983,273.166412226352 M653.0229912770983,273.166412226352 L653.1748288239754,271.63913023098416 M653.1748288239754,271.63913023098416 L653.6204579439911,270.0259159764721 M653.6204579439911,270.0259159764721 L654.3339797444477,268.420525806675 M654.3339797444477,268.420525806675 L655.2739403797991,266.91624989414896 M655.2739403797991,266.91624989414896 L656.3857005631936,265.6005277400816 M656.3857005631936,265.6005277400816 L657.6046314117787,264.5498304308953 M657.6046314117787,264.5498304308953 L658.8599139118757,263.8252091301831 M658.8599139118757,263.8252091301831 L660.07857631552,263.46878519436774 M660.07857631552,263.46878519436774 L661.1898169300973,263.5012554232199 M661.1898169300973,263.5012554232199 L662.1290242191775,263.9207517722575 M662.1290242191775,263.9207517722575 L662.841653103853,264.7028626368814 M662.841653103853,264.7028626368814 L663.2862583393463,265.80215482518133 M663.2862583393463,265.80215482518133 L663.4370029897925,267.1547416905778 M640.0904598336418,253.68935685934662 L645.5083282033428,254.41069024506623 M645.5083282033428,254.41069024506623 L650.9262191403109,255.13202663538476 M650.9262191403109,255.13202663538476 L650.6548161697003,252.69740994131288 M650.6548161697003,252.69740994131288 L649.8544995002923,250.71867466875025 M649.8544995002923,250.71867466875025 L648.5717517501469,249.31083169820502 M648.5717517501469,249.31083169820502 L646.881140980109,248.55569584282856 M646.881140980109,248.55569584282856 L644.8808921448334,248.49716657232065 M644.8808921448334,248.49716657232065 L642.6872654764509,249.13865574940152 M642.6872654764509,249.13865574940152 L640.4277413581666,250.44289264543073 M640.4277413581666,250.44289264543073 L638.2336470802388,252.33407976902328 M638.2336470802388,252.33407976902328 L636.2324957703768,254.7023129818919 M636.2324957703768,254.7023129818919 L634.5406099799462,257.4099359339475 M634.5406099799462,257.4099359339475 L633.256300653984,260.29960390559705 M633.256300653984,260.29960390559705 L632.4542378167571,263.2033499968037 M632.4542378167571,263.2033499968037 L632.1809976210302,265.9524326248595 M632.1809976210302,265.9524326248595 L632.4525012696639,268.3870458424207 M632.4525012696639,268.3870458424207 L633.2529168535181,270.36573093066943 M633.2529168535181,270.36573093066943 L634.5357549877677,271.77347474167243 M634.5357549877677,271.77347474167243 L636.2264269031332,272.52848977003583 M636.2264269031332,272.52848977003583 L638.226693640629,272.58689609583155 M638.226693640629,272.58689609583155 L640.4202908651143,271.9453146126443 M640.4202908651143,271.9453146126443 L642.6797449385904,270.641037195035 M642.6797449385904,270.641037195035 L644.8737446173953,268.74987061749584 M644.8737446173953,268.74987061749584 L646.8747984450105,266.3817143115457 M646.8747984450105,266.3817143115457 L648.5666062044373,263.67420241798095 M648.5666062044373,263.67420241798095 L649.8508748224883,260.78466234401844 M649.8508748224883,260.78466234401844 L650.6529436039409,257.881027098853 M650.6529436039409,257.881027098853 L650.9262191403109,255.13202663538476 M303.9937743127026,447.691959787104 L309.41397704625246,448.4141014852143 M309.41397704625246,448.4141014852143 L314.83420236943886,449.1362461929757 M314.83420236943886,449.1362461929757 L314.5612297275724,446.7010840951589 M314.5612297275724,446.7010840951589 L313.75882376586884,444.72218769076267 M313.75882376586884,444.72218769076267 L312.4736039318865,443.31456832933776 M312.4736039318865,443.31456832933776 L310.7802506221069,442.56004592117154 M310.7802506221069,442.56004592117154 L308.77717949736893,442.50246620939834 M308.77717949736893,442.50246620939834 L306.5807834790756,443.14520397265943 M306.5807834790756,443.14520397265943 L304.31873524869656,444.45089783039873 M304.31873524869656,444.45089783039873 L302.1224854083332,446.3436791212314 M302.1224854083332,446.3436791212314 L300.1196803207441,448.7135464685144 M300.1196803207441,448.7135464685144 L298.4267307198978,451.4227531223797 M298.4267307198978,451.4227531223797 L297.1420327649972,454.3138488220084 M297.1420327649972,454.3138488220084 L296.3402477409096,457.2188017628012 M296.3402477409096,457.2188017628012 L296.0679749195015,459.9687775498492 M296.0679749195015,459.9687775498492 L296.34102456358613,462.40394990150315 M296.34102456358613,462.40394990150315 L297.1435296097787,464.38279603107594 M297.1435296097787,464.38279603107594 L298.42883995675237,465.79031610606916 M298.42883995675237,465.79031610606916 L300.12225447327614,466.5447175531378 M300.12225447327614,466.5447175531378 L302.12535142977663,466.60216961691225 M302.12535142977663,466.60216961691225 L304.3217099473326,465.95934407561157 M304.3217099473326,465.95934407561157 L306.5836879760679,464.65360969639084 M306.5836879760679,464.65360969639084 L308.7798509957233,462.760844423325 M308.7798509957233,462.760844423325 L310.78255049326197,460.39105868631566 M310.78255049326197,460.39105868631566 L312.47542196345063,457.68196322480185 M312.47542196345063,457.68196322480185 L313.7600791932371,454.79099554994247 M313.7600791932371,454.79099554994247 L314.5618702264883,451.8861535456648 M314.5618702264883,451.8861535456648 L314.83420236943886,449.1362461929757 M317.3344359312859,455.39495954266846 L317.18313189491346,456.92270679691876 M317.18313189491346,456.92270679691876 L316.7376792353398,458.53653486241507 M316.7376792353398,458.53653486241507 L316.02396690659486,460.142657574459 M316.02396690659486,460.142657574459 L315.08346561815426,461.6477397672722 M315.08346561815426,461.6477397672722 L313.9708265197664,462.96431901269597 M313.9708265197664,462.96431901269597 L312.75073239736656,464.0158692832187 M312.75073239736656,464.0158692832187 L311.4940648471202,464.74129094458624 M311.4940648471202,464.74129094458624 L310.2738644758427,465.09841856851665 M310.2738644758427,465.09841856851665 L309.16104417572967,465.06649609416064 M309.16104417572967,465.06649609416064 L308.22027691134645,464.64737591194256 M308.22027691134645,464.64737591194256 L307.50623296582046,463.8654141525699 M307.50623296582046,463.8654141525699 L307.06042122978494,462.7660481840492 M307.06042122978494,462.7660481840492 L306.9087539811344,461.41316628928854 M306.9087539811344,461.41316628928854 L307.0600342094776,459.88540250473994 M307.0600342094776,459.88540250473994 L307.5054850147316,458.27154019901707 M307.5054850147316,458.27154019901707 L308.21921786762636,456.6653733808509 M308.21921786762636,456.6653733808509 L309.15974327008547,455.16025085959996 M309.15974327008547,455.16025085959996 L310.2724045493557,453.8436524338241 M310.2724045493557,453.8436524338241 L311.4925358775116,452.792091210483 M311.4925358775116,452.792091210483 L312.74922509501107,452.06668205579103 M312.74922509501107,452.06668205579103 L313.9694266311727,451.7095875328095 M313.9694266311727,451.7095875328095 L315.0822493673,451.7415433967733 M315.0822493673,451.7415433967733 L316.02299774101544,452.1607069224284 M316.02299774101544,452.1607069224284 L316.7370057958057,452.9427039180909 M316.7370057958057,452.9427039180909 L317.1827869498711,454.04208540410707 M317.1827869498711,454.04208540410707 L317.3344359312859,455.39495954266846 M317.3344359312859,455.39495954266846 L327.34032110690305,461.17243394878193 M653.431119497884,261.38373435583605 L653.279302815776,262.91097114953135 M653.279302815776,262.91097114953135 L652.8336914364615,264.5241313199915 M652.8336914364615,264.5241313199915 L652.1201835351384,266.1294675159991 M652.1201835351384,266.1294675159991 L651.180276750761,267.63366787504305 M651.180276750761,267.63366787504305 L650.0685563717986,268.94933928942294 M650.0685563717986,268.94933928942294 L648.8496597152202,270.00000391692924 M648.8496597152202,270.00000391692924 L647.5943988162521,270.72461357729696 M647.5943988162521,270.72461357729696 L646.3757404709961,271.0810454524827 M646.3757404709961,271.0810454524827 L645.2644845826877,271.0485974101621 M645.2644845826877,271.0485974101621 L644.3252286278872,270.6291434810788 M644.3252286278872,270.6291434810788 L643.612570491899,269.8470502861928 M643.612570491899,269.8470502861928 L643.1679151394529,268.747776333929 M643.1679151394529,268.747776333929 L643.0171076388363,267.3952045626931 M643.0171076388363,267.3952045626931 L643.1689243987215,265.8679374845272 M643.1689243987215,265.8679374845272 L643.6145339439241,264.25474310168295 M643.6145339439241,264.25474310168295 L644.3280385193876,262.6493766030755 M644.3280385193876,262.6493766030755 L645.2679852806167,261.1451267857923 M645.2679852806167,261.1451267857923 L646.379735747243,259.82943163409664 M646.379735747243,259.82943163409664 L647.5986616011027,258.7787606647952 M647.5986616011027,258.7787606647952 L648.853944118841,258.05416351109005 M648.853944118841,258.05416351109005 L650.0726115514682,257.6977601257322 M650.0726115514682,257.6977601257322 L651.183861914055,257.73024611468423 M651.183861914055,257.73024611468423 L652.1230831036667,258.149752517003 M652.1230831036667,258.149752517003 L652.8357292333773,258.9318671447026 M652.8357292333773,258.9318671447026 L653.2803540561941,260.031156586621 M653.2803540561941,260.031156586621 L653.431119497884,261.38373435583605 M653.431119497884,261.38373435583605 L663.4370029897925,267.1547416905778 M653.431119497884,261.38373435583605 L652.1786580157523,258.2578522848239 M652.1786580157523,258.2578522848239 L650.9262191403109,255.13202663538476 M317.3344359312859,455.39495954266846 L316.08430786175654,452.26557460960294 M316.08430786175654,452.26557460960294 L314.83420236943886,449.1362461929757" stroke="black"  stroke-width="4"  fill="red"/>
<path d="M653.431119497884,261.38373435583605 L653.279302815776,262.91097114953135 M653.279302815776,262.91097114953135 L652.8336914364615,264.5241313199915 M652.8336914364615,264.5241313199915 L652.1201835351384,266.1294675159991 M652.1201835351384,266.1294675159991 L651.180276750761,267.63366787504305 M651.180276750761,267.63366787504305 L650.0685563717986,268.94933928942294 M650.0685563717986,268.94933928942294 L648.8496597152202,270.00000391692924 M648.8496597152202,270.00000391692924 L647.5943988162521,270.72461357729696 M647.5943988162521,270.72461357729696 L646.3757404709961,271.0810454524827 M646.3757404709961,271.0810454524827 L645.2644845826877,271.0485974101621 M645.2644845826877,271.0485974101621 L644.3252286278872,270.6291434810788 M644.3252286278872,270.6291434810788 L643.612570491899,269.8470502861928 M643.612570491899,269.8470502861928 L643.1679151394529,268.747776333929 M643.1679151394529,268.747776333929 L643.0171076388363,267.3952045626931 M643.0171076388363,267.3952045626931 L643.1689243987215,265.8679374845272 M643.1689243987215,265.8679374845272 L643.6145339439241,264.25474310168295 M643.6145339439241,264.25474310168295 L644.3280385193876,262.6493766030755 M644.3280385193876,262.6493766030755 L645.2679852806167,261.1451267857923 M645.2679852806167,261.1451267857923 L646.379735747243,259.82943163409664 M646.379735747243,259.82943163409664 L647.5986616011027,258.7787606647952 M647.5986616011027,258.7787606647952 L648.853944118841,258.05416351109005 M648.853944118841,258.05416351109005 L650.0726115514682,257.6977601257322 M650.0726115514682,257.6977601257322 L651.183861914055,257.73024611468423 M651.183861914055,257.73024611468423 L652.1230831036667,258.149752517003 M652.1230831036667,258.149752517003 L652.8357292333773,258.9318671447026 M652.8357292333773,258.9318671447026 L653.2803540561941,260.031156586621 M653.2803540561941,260.031156586621 L653.431119497884,261.38373435583605 M653.431119497884,261.38373435583605 L652.1786580157523,258.2578522848239 M652.1786580157523,258.2578522848239 L650.9262191403109,255.13202663538476 M650.9262191403109,255.13202663538476 L650.6548161697003,252.69740994131288 M650.6548161697003,252.69740994131288 L649.8544995002923,250.71867466875025 M649.8544995002923,250.71867466875025 L648.5717517501469,249.31083169820502 M648.5717517501469,249.31083169820502 L646.881140980109,248.55569584282856 M646.881140980109,248.55569584282856 L644.8808921448334,248.49716657232065 M644.8808921448334,248.49716657232065 L642.6872654764509,249.13865574940152 M642.6872654764509,249.13865574940152 L640.4277413581666,250.44289264543073 M640.4277413581666,250.44289264543073 L638.2336470802388,252.33407976902328 M638.2336470802388,252.33407976902328 L636.2324957703768,254.7023129818919 M636.2324957703768,254.7023129818919 L634.5406099799462,257.4099359339475 M634.5406099799462,257.4099359339475 L633.256300653984,260.29960390559705 M633.256300653984,260.29960390559705 L632.4542378167571,263.2033499968037 M632.4542378167571,263.2033499968037 L632.1809976210302,265.9524326248595 M632.1809976210302,265.9524326248595 L632.4525012696639,268.3870458424207 M632.4525012696639,268.3870458424207 L633.2529168535181,270.36573093066943 M633.2529168535181,270.36573093066943 L634.5357549877677,271.77347474167243 M634.5357549877677,271.77347474167243 L636.2264269031332,272.52848977003583 M636.2264269031332,272.52848977003583 L638.226693640629,272.58689609583155 M638.226693640629,272.58689609583155 L640.4202908651143,271.9453146126443 M640.4202908651143,271.9453146126443 L642.6797449385904,270.641037195035 M642.6797449385904,270.641037195035 L644.8737446173953,268.74987061749584 M644.8737446173953,268.74987061749584 L646.8747984450105,266.3817143115457 M646.8747984450105,266.3817143115457 L648.5666062044373,263.67420241798095 M648.5666062044373,263.67420241798095 L649.8508748224883,260.78466234401844 M649.8508748224883,260.78466234401844 L650.6529436039409,257.881027098853 M650.6529436039409,257.881027098853 L650.9262191403109,255.13202663538476 M653.431119497884,261.38373435583605 L686.7853630349359,280.6211744332413 M686.7853630349359,280.6211744332413 L686.6334770583686,282.14846094949695 M686.6334770583686,282.14846094949695 L686.1878004271582,283.7616873577581 M686.1878004271582,283.7616873577581 L685.474235108514,285.3671024575298 M685.474235108514,285.3671024575298 L684.5342820780988,286.871389798958 M684.5342820780988,286.871389798958 L683.4225293117656,288.18715122198137 M683.4225293117656,288.18715122198137 L682.2036160085535,289.2379036517344 M682.2036160085535,289.2379036517344 L680.9483551711024,289.9625938068268 M680.9483551711024,289.9625938068268 L679.7297135919383,290.3190941900355 M679.7297135919383,290.3190941900355 L678.6184901999436,290.2866986889662 M678.6184901999436,290.2866986889662 L677.679280583275,289.8672782796133 M677.679280583275,289.8672782796133 L676.9666799345023,289.0851976338512 M676.9666799345023,289.0851976338512 L676.5220898775841,287.98591453140267 M676.5220898775841,287.98591453140267 L676.3713516862598,286.63331244213646 M676.3713516862598,286.63331244213646 L676.5232377411819,285.10599563939275 M676.5232377411819,285.10599563939275 L676.9689125398768,283.49273501598503 M676.9689125398768,283.49273501598503 L677.6824745349106,281.887289610739 M677.6824745349106,281.887289610739 L678.6224675447834,280.3829528057926 M678.6224675447834,280.3829528057926 L679.7342504007567,279.0671676420285 M679.7342504007567,279.0671676420285 L680.9531929023643,278.0164088685477 M680.9531929023643,278.0164088685477 L682.2084753585824,277.29173122012025 M682.2084753585824,277.29173122012025 L683.4271260239979,276.9352593286763 M683.4271260239979,276.9352593286763 L684.5383438882913,276.96769277980434 M684.5383438882913,276.96769277980434 L685.4775187371642,277.3871656676723 M685.4775187371642,277.3871656676723 L686.1901073774123,278.1692677491209 M686.1901073774123,278.1692677491209 L686.6346669031097,279.2685663439829 M686.6346669031097,279.2685663439829 L686.7853630349359,280.6211744332413" stroke="black"  stroke-width="4"  fill="red"/>
<path d="M317.3344359312859,455.39495954266846 L317.18313189491346,456.92270679691876 M317.18313189491346,456.92270679691876 L316.7376792353398,458.53653486241507 M316.7376792353398,458.53653486241507 L316.02396690659486,460.142657574459 M316.02396690659486,460.142657574459 L315.08346561815426,461.6477397672722 M315.08346561815426,461.6477397672722 L313.9708265197664,462.96431901269597 M313.9708265197664,462.96431901269597 L312.75073239736656,464.0158692832187 M312.75073239736656,464.0158692832187 L311.4940648471202,464.74129094458624 M311.4940648471202,464.74129094458624 L310.2738644758427,465.09841856851665 M310.2738644758427,465.09841856851665 L309.16104417572967,465.06649609416064 M309.16104417572967,465.06649609416064 L308.22027691134645,464.64737591194256 M308.22027691134645,464.64737591194256 L307.50623296582046,463.8654141525699 M307.50623296582046,463.8654141525699 L307.06042122978494,462.7660481840492 M307.06042122978494,462.7660481840492 L306.9087539811344,461.41316628928854 M306.9087539811344,461.41316628928854 L307.0600342094776,459.88540250473994 M307.0600342094776,459.88540250473994 L307.5054850147316,458.27154019901707 M307.5054850147316,458.27154019901707 L308.21921786762636,456.6653733808509 M308.21921786762636,456.6653733808509 L309.15974327008547,455.16025085959996 M309.15974327008547,455.16025085959996 L310.2724045493557,453.8436524338241 M310.2724045493557,453.8436524338241 L311.4925358775116,452.792091210483 M311.4925358775116,452.792091210483 L312.74922509501107,452.06668205579103 M312.74922509501107,452.06668205579103 L313.9694266311727,451.7095875328095 M313.9694266311727,451.7095875328095 L315.0822493673,451.7415433967733 M315.0822493673,451.7415433967733 L316.02299774101544,452.1607069224284 M316.02299774101544,452.1607069224284 L316.7370057958057,452.9427039180909 M316.7370057958057,452.9427039180909 L317.1827869498711,454.04208540410707 M317.1827869498711,454.04208540410707 L317.3344359312859,455.39495954266846 M317.3344359312859,455.39495954266846 L316.08430786175654,452.26557460960294 M316.08430786175654,452.26557460960294 L314.83420236943886,449.1362461929757 M314.83420236943886,449.1362461929757 L314.5612297275724,446.7010840951589 M314.5612297275724,446.7010840951589 L313.75882376586884,444.72218769076267 M313.75882376586884,444.72218769076267 L312.4736039318865,443.31456832933776 M312.4736039318865,443.31456832933776 L310.7802506221069,442.56004592117154 M310.7802506221069,442.56004592117154 L308.77717949736893,442.50246620939834 M308.77717949736893,442.50246620939834 L306.5807834790756,443.14520397265943 M306.5807834790756,443.14520397265943 L304.31873524869656,444.45089783039873 M304.31873524869656,444.45089783039873 L302.1224854083332,446.3436791212314 M302.1224854083332,446.3436791212314 L300.1196803207441,448.7135464685144 M300.1196803207441,448.7135464685144 L298.4267307198978,451.4227531223797 M298.4267307198978,451.4227531223797 L297.1420327649972,454.3138488220084 M297.1420327649972,454.3138488220084 L296.3402477409096,457.2188017628012 M296.3402477409096,457.2188017628012 L296.0679749195015,459.9687775498492 M296.0679749195015,459.9687775498492 L296.34102456358613,462.40394990150315 M296.34102456358613,462.40394990150315 L297.1435296097787,464.38279603107594 M297.1435296097787,464.38279603107594 L298.42883995675237,465.79031610606916 M298.42883995675237,465.79031610606916 L300.12225447327614,466.5447175531378 M300.12225447327614,466.5447175531378 L302.12535142977663,466.60216961691225 M302.12535142977663,466.60216961691225 L304.3217099473326,465.95934407561157 M304.3217099473326,465.95934407561157 L306.5836879760679,464.65360969639084 M306.5836879760679,464.65360969639084 L308.7798509957233,462.760844423325 M308.7798509957233,462.760844423325 L310.78255049326197,460.39105868631566 M310.78255049326197,460.39105868631566 L312.47542196345063,457.68196322480185 M312.47542196345063,457.68196322480185 L313.7600791932371,454.79099554994247 M313.7600791932371,454.79099554994247 L314.5618702264883,451.8861535456648 M314.5618702264883,451.8861535456648 L314.83420236943886,449.1362461929757 M317.3344359312859,455.39495954266846 L350.6886858073228,474.6539577833745 M350.6886858073228,474.6539577833745 L350.53731246703563,476.18175477755693 M350.53731246703563,476.18175477755693 L350.09179452782627,477.7956491288832 M350.09179452782627,477.7956491288832 L349.3780247373489,479.4018508205862 M349.3780247373489,479.4018508205862 L348.4374771443692,480.9070200976231 M348.4374771443692,480.9070200976231 L347.32480558941745,482.2236894715493 M347.32480558941745,482.2236894715493 L346.10469474452145,483.2753276757383 M346.10469474452145,483.2753276757383 L344.8480271776672,484.00082996717634 M344.8480271776672,484.00082996717634 L343.62784349663536,484.3580262310446 M343.62784349663536,484.3580262310446 L342.51505562367475,484.3261564172586 M342.51505562367475,484.3261564172586 L341.5743346389676,483.90706985554795 M341.5743346389676,483.90706985554795 L340.86034813630465,483.1251207226671 M340.86034813630465,483.1251207226671 L340.41460166812533,482.0257456519238 M340.41460166812533,482.0257456519238 L340.2630037193849,480.6728334549011 M340.2630037193849,480.6728334549011 L340.4143532522182,479.1450199299328 M340.4143532522182,479.1450199299328 L340.85986933870373,477.5310913356147 M340.85986933870373,477.5310913356147 L341.573659655582,475.92484553338 M341.573659655582,475.92484553338 L342.51423136519116,474.41963592363794 M342.51423136519116,474.41963592363794 L343.6269251030072,473.1029473664381 M343.6269251030072,473.1029473664381 L344.8470731547789,472.05129820698244 M344.8470731547789,472.05129820698244 L346.1037623888872,471.32580842222 M346.1037623888872,471.32580842222 L347.323947233685,470.9686452617489 M347.323947233685,470.9686452617489 L348.436737540679,471.00054846806427 M348.436737540679,471.00054846806427 L349.3774396321074,471.41967837747933 M349.3774396321074,471.41967837747933 L350.0913902417831,472.2016627510594 M350.0913902417831,472.2016627510594 L350.5371061263951,473.30105334206337 M350.5371061263951,473.30105334206337 L350.6886858073228,474.6539577833745" stroke="black"  stroke-width="4"  fill="red"/>
<path d="M640.0904598336418,253.68935685934662 L639.9396666725787,252.33679121859907 M639.9396666725787,252.33679121859907 L639.4950157357445,251.23750543918743 M639.4950157357445,251.23750543918743 L638.7823466150563,250.45538579511876 M638.7823466150563,250.45538579511876 L637.8431068936544,250.0358659898294 M637.8431068936544,250.0358659898294 L636.7318435356914,250.00335898907244 M636.7318435356914,250.00335898907244 L635.5131693993277,250.359734975642 M635.5131693993277,250.359734975642 L634.2578868591535,251.0842999352145 M634.2578868591535,251.0842999352145 L633.0389676654628,252.13493578649184 M633.0389676654628,252.13493578649184 L631.9272301544806,253.45059493668737 M631.9272301544806,253.45059493668737 L630.9873018914554,254.95480996171867 M630.9873018914554,254.95480996171867 L630.2738202814803,256.5601448998067 M630.2738202814803,256.5601448998067 L629.8282368343847,258.1733127877601 M629.8282368343847,258.1733127877601 L629.6764477884653,259.7005599765502 M629.6764477884653,259.7005599765502 L629.8272830082265,261.05311962012377 M629.8272830082265,261.05311962012377 L630.2719644740534,262.1523899109842 M630.2719644740534,262.1523899109842 L630.9846456001208,262.93448812338806 M630.9846456001208,262.93448812338806 L631.9239200856688,263.3539554575537 M631.9239200856688,263.3539554575537 L633.0351889685613,263.3864245130502 M633.0351889685613,263.3864245130502 L634.2538540171063,263.0300200374272 M634.2538540171063,263.0300200374272 L635.5091149385091,262.30544257119317 M635.5091149385091,262.30544257119317 L636.7280049353642,261.2548130609382 M636.7280049353642,261.2548130609382 L637.8397123594729,259.9391776466887 M637.8397123594729,259.9391776466887 L638.7796006466887,258.43501207778525 M638.7796006466887,258.43501207778525 L639.4930855834231,256.8297074411473 M639.4930855834231,256.8297074411473 L639.9386708652688,255.21657376447328 M639.9386708652688,255.21657376447328 L640.0904598336418,253.68935685934662 M640.0904598336418,253.68935685934662 L645.5083282033428,254.41069024506623 M645.5083282033428,254.41069024506623 L650.9262191403109,255.13202663538476 M650.9262191403109,255.13202663538476 L650.6529436039409,257.881027098853 M650.6529436039409,257.881027098853 L649.8508748224883,260.78466234401844 M649.8508748224883,260.78466234401844 L648.5666062044373,263.67420241798095 M648.5666062044373,263.67420241798095 L646.8747984450105,266.3817143115457 M646.8747984450105,266.3817143115457 L644.8737446173953,268.74987061749584 M644.8737446173953,268.74987061749584 L642.6797449385904,270.641037195035 M642.6797449385904,270.641037195035 L640.4202908651143,271.9453146126443 M640.4202908651143,271.9453146126443 L638.226693640629,272.58689609583155 M638.226693640629,272.58689609583155 L636.2264269031332,272.52848977003583 M636.2264269031332,272.52848977003583 L634.5357549877677,271.77347474167243 M634.5357549877677,271.77347474167243 L633.2529168535181,270.36573093066943 M633.2529168535181,270.36573093066943 L632.4525012696639,268.3870458424207 M632.4525012696639,268.3870458424207 L632.1809976210302,265.9524326248595 M632.1809976210302,265.9524326248595 L632.4542378167571,263.2033499968037 M632.4542378167571,263.2033499968037 L633.256300653984,260.29960390559705 M633.256300653984,260.29960390559705 L634.5406099799462,257.4099359339475 M634.5406099799462,257.4099359339475 L636.2324957703768,254.7023129818919 M636.2324957703768,254.7023129818919 L638.2336470802388,252.33407976902328 M638.2336470802388,252.33407976902328 L640.4277413581666,250.44289264543073 M640.4277413581666,250.44289264543073 L642.6872654764509,249.13865574940152 M642.6872654764509,249.13865574940152 L644.8808921448334,248.49716657232065 M644.8808921448334,248.49716657232065 L646.881140980109,248.55569584282856 M646.881140980109,248.55569584282856 L648.5717517501469,249.31083169820502 M648.5717517501469,249.31083169820502 L649.8544995002923,250.71867466875025 M649.8544995002923,250.71867466875025 L650.6548161697003,252.69740994131288 M650.6548161697003,252.69740994131288 L650.9262191403109,255.13202663538476 M640.0904598336418,253.68935685934662 L606.7414027159158,234.45490810839397 M606.7414027159158,234.45490810839397 L606.5905402678441,233.10237278994097 M606.5905402678441,233.10237278994097 L606.145824058035,232.0030961701194 M606.145824058035,232.0030961701194 L605.4330974719157,231.22096399045512 M605.4330974719157,231.22096399045512 L604.4938114322966,230.80141068475953 M604.4938114322966,230.80141068475953 L603.3825155957423,230.76885116279686 M603.3825155957423,230.76885116279686 L602.1638247079048,231.12515866150613 M602.1638247079048,231.12515866150613 L600.9085421170696,231.84964314513059 M600.9085421170696,231.84964314513059 L599.6896395764759,232.9001912104601 M599.6896395764759,232.9001912104601 L598.5779344543693,234.2157603652169 M598.5779344543693,234.2157603652169 L597.6380524337227,235.71988841664574 M597.6380524337227,235.71988841664574 L596.9246282316232,237.32514445876993 M596.9246282316232,237.32514445876993 L596.4791100215758,238.93824611282812 M596.4791100215758,238.93824611282812 L596.3273902504554,240.46544357931458 M596.3273902504554,240.46544357931458 L596.4782947566533,241.81797290260562 M596.4782947566533,241.81797290260562 L596.9230414938635,242.9172340366341 M596.9230414938635,242.9172340366341 L597.6357800831152,243.6993447875056 M597.6357800831152,243.6993447875056 L598.5751008842745,244.11884562735585 M598.5751008842745,244.11884562735585 L599.6864022437793,244.15136720748484 M599.6864022437793,244.15136720748484 L600.9050840426789,243.79503122165897 M600.9050840426789,243.79503122165897 L602.1603450147403,243.07053423137552 M602.1603450147403,243.07053423137552 L603.3792183596127,242.01999250513632 M603.3792183596127,242.01999250513632 L604.4908933968221,240.7044470829017 M604.4908933968221,240.7044470829017 L605.4307354442648,239.20036848232297 M605.4307354442648,239.20036848232297 L606.1441629753717,237.5951427387752 M606.1441629753717,237.5951427387752 L606.5896830217646,235.9820752932343 M606.5896830217646,235.9820752932343 L606.7414027159158,234.45490810839397" stroke="black"  stroke-width="4"  fill="red"/>
<path d="M303.9937743127026,447.691959787104 L303.8420976156689,446.3390977700956 M303.8420976156689,446.3390977700956 L303.39629035865585,445.2397199274089 M303.39629035865585,445.2397199274089 L302.6822593306302,444.4577178850514 M302.6822593306302,444.4577178850514 L301.7414924485077,444.0385409157176 M301.7414924485077,444.0385409157176 L300.62865674467014,444.00656399202745 M300.62865674467014,444.00656399202745 L299.408448535112,444.36363106366827 M299.408448535112,444.36363106366827 L298.1517593264281,445.0890079700966 M298.1517593264281,445.0890079700966 L296.9316346887876,446.1405340226472 M296.9316346887876,446.1405340226472 L295.8189863928392,447.45709639918726 M295.8189863928392,447.45709639918726 L294.87847951198404,448.96218408785995 M294.87847951198404,448.96218408785995 L294.16476964233993,450.5683193145378 M294.16476964233993,450.5683193145378 L293.7193449462853,452.182155106158 M293.7193449462853,452.182155106158 L293.5680924356857,453.70989899499307 M293.5680924356857,453.70989899499307 L293.71978739972417,455.0627687683956 M293.71978739972417,455.0627687683956 L294.1656252380685,456.1621310946929 M294.1656252380685,456.1621310946929 L294.87969215592926,456.9440979025241 M294.87969215592926,456.9440979025241 L295.82047792767537,457.3632315301275 M295.82047792767537,457.3632315301275 L296.93331119470656,457.3951750653784 M296.93331119470656,457.3951750653784 L298.15351823893343,457.0380748937681 M298.15351823893343,457.0380748937681 L299.4101857803646,456.31268548066413 M299.4101857803646,456.31268548066413 L300.63027321269703,455.26117037995283 M300.63027321269703,455.26117037995283 L301.7428993285558,453.9446271825964 M301.7428993285558,453.9446271825964 L302.6833820964368,452.43957982065467 M302.6833820964368,452.43957982065467 L303.39707144283125,450.83348869833554 M303.39707144283125,450.83348869833554 L303.84249799384384,449.21968714583585 M303.84249799384384,449.21968714583585 L303.9937743127026,447.691959787104 M303.9937743127026,447.691959787104 L309.41397704625246,448.4141014852143 M309.41397704625246,448.4141014852143 L314.83420236943886,449.1362461929757 M314.83420236943886,449.1362461929757 L314.5618702264883,451.8861535456648 M314.5618702264883,451.8861535456648 L313.7600791932371,454.79099554994247 M313.7600791932371,454.79099554994247 L312.47542196345063,457.68196322480185 M312.47542196345063,457.68196322480185 L310.78255049326197,460.39105868631566 M310.78255049326197,460.39105868631566 L308.7798509957233,462.7608444233249 M308.7798509957233,462.7608444233249 L306.5836879760679,464.65360969639084 M306.5836879760679,464.65360969639084 L304.3217099473326,465.95934407561157 M304.3217099473326,465.95934407561157 L302.12535142977663,466.60216961691225 M302.12535142977663,466.60216961691225 L300.12225447327614,466.5447175531377 M300.12225447327614,466.5447175531377 L298.42883995675237,465.79031610606916 M298.42883995675237,465.79031610606916 L297.1435296097787,464.38279603107594 M297.1435296097787,464.38279603107594 L296.34102456358613,462.40394990150315 M296.34102456358613,462.40394990150315 L296.0679749195015,459.9687775498492 M296.0679749195015,459.9687775498492 L296.3402477409096,457.2188017628012 M296.3402477409096,457.2188017628012 L297.1420327649972,454.3138488220084 M297.1420327649972,454.3138488220084 L298.4267307198978,451.4227531223797 M298.4267307198978,451.4227531223797 L300.1196803207441,448.7135464685144 M300.1196803207441,448.7135464685144 L302.1224854083332,446.3436791212314 M302.1224854083332,446.3436791212314 L304.31873524869656,444.45089783039873 M304.31873524869656,444.45089783039873 L306.5807834790756,443.14520397265943 M306.5807834790756,443.14520397265943 L308.77717949736893,442.50246620939834 M308.77717949736893,442.50246620939834 L310.7802506221069,442.56004592117154 M310.7802506221069,442.56004592117154 L312.4736039318865,443.31456832933776 M312.4736039318865,443.31456832933776 L313.75882376586884,444.72218769076267 M313.75882376586884,444.72218769076267 L314.5612297275724,446.7010840951589 M314.5612297275724,446.7010840951589 L314.83420236943886,449.1362461929757 M303.9937743127026,447.691959787104 L270.64471376186845,428.4359579023442 M270.64471376186845,428.4359579023442 L270.492967787221,427.0831261903525 M270.492967787221,427.0831261903525 L270.04709528491645,425.9837574593249 M270.04709528491645,425.9837574593249 L269.3330068358225,425.2017428055728 M269.3330068358225,425.2017428055728 L268.39219369394635,424.7825322340821 M268.39219369394635,424.7825322340821 L267.27932558068625,424.750502669404 M267.27932558068625,424.750502669404 L266.05910069550663,425.1075011218244 M266.05910069550663,425.1075011218244 L264.8024115142906,425.8327974169988 M264.8024115142906,425.8327974169988 L263.5823036056109,426.8842355517049 M263.5823036056109,426.8842355517049 L262.469687767728,428.2007078134829 M262.469687767728,428.2007078134829 L261.5292271877457,429.7057084277497 M261.5292271877457,429.7057084277497 L260.8155747703757,431.311764681049 M260.8155747703757,431.311764681049 L260.37021533909154,432.92553419074727 M260.37021533909154,432.92553419074727 L260.21903211272587,434.4532283414312 M260.21903211272587,434.4532283414312 L260.3707963538009,435.8060678103043 M260.3707963538009,435.8060678103043 L260.81669943583955,436.90542102770695 M260.81669943583955,436.90542102770695 L261.5308237725173,437.68740045134115 M261.5308237725173,437.68740045134115 L262.4716558014068,438.1065676853678 M262.4716558014068,438.1065676853678 L263.58452147588054,438.1385638645277 M263.58452147588054,438.1385638645277 L264.8047451946114,437.78153231458583 M264.8047451946114,437.78153231458583 L266.06141270857614,437.0562235127362 M266.06141270857614,437.0562235127362 L267.2814834130678,436.00479632742196 M267.2814834130678,436.00479632742196 L268.3940770728426,434.68834324190675 M268.3940770728426,434.68834324190675 L269.3345135424613,433.18338295010483 M269.3345135424613,433.18338295010483 L270.04814543883197,431.57737079675553 M270.04814543883197,431.57737079675553 L270.4935067266692,429.9636355234129 M270.4935067266692,429.9636355234129 L270.64471376186845,428.4359579023442" stroke="black"  stroke-width="4"  fill="red"/></svg>